<?xml version="1.0" encoding="utf-8"?>
<!-- Generator: Adobe Illustrator 25.4.1, SVG Export Plug-In . SVG Version: 6.00 Build 0)  -->
<svg version="1.1" id="Layer_1" xmlns="http://www.w3.org/2000/svg" xmlns:xlink="http://www.w3.org/1999/xlink" x="0px" y="0px"
	 viewBox="0 0 224.9 240.8" style="enable-background:new 0 0 224.9 240.8;" xml:space="preserve">
<style type="text/css">
	.st0{fill:#002A3A;}
	.st1{fill:#00223A;}
</style>
<g>
	<path class="st0" d="M162.2,98.2c-8.1,20.2-27.9,34.4-51,34.4c-30.4,0-55-24.6-55-55c0-30.3,24.6-55,55-55
		c23.1,0,42.8,14.2,51,34.4h23.7c-9-32.8-39-56.8-74.6-56.8c-42.7,0-77.4,34.6-77.4,77.4c0,42.7,34.6,77.4,77.4,77.4
		c35.6,0,65.6-24.1,74.6-56.8H162.2L162.2,98.2z M62.3,38.5l0.9,0.6l-4.8,6.5L57.5,45l0.9-1.2l-5.6-4.1l-0.9,1.2L51,40.2l0.9-1.2
		l-0.1-0.1c-0.8-0.6-1.5-1.1-1.6-2.3c-0.1-0.8,0.2-1.5,0.7-2.2l0.8,0.6c-0.2,0.4-0.4,0.8-0.4,1.3c0,0.8,0.5,1.2,1.1,1.6l0.2,0.1
		l2.3-3.2l6.5,4.8L62.3,38.5L62.3,38.5z M53.8,34.1L53.1,35l-1.4-1.1l0.7-0.9L53.8,34.1L53.8,34.1z M55.1,36.5l-1.7,2.3l5.6,4.1
		l1.7-2.3L55.1,36.5L55.1,36.5z M59.9,32.1c-0.6-1.2-0.2-2.4,0.6-3.4l0.8,0.7c-1.2,1.6-1,3,0.4,4.4l2.7,2.5l1-1.1l0.8,0.7L63.4,39
		l-0.8-0.7l1-1.1l-5.1-4.7l-1,1.1l-0.8-0.7l1.8-2L59.9,32.1L59.9,32.1z M71.9,28.2c0.3,1.6-0.3,3-1.5,4c-1.3,1.1-3,1.4-4.4,0.9
		c-0.8-0.3-1.6-0.7-2.2-1.5c-0.9-1-1-1.7-1.1-2.5c-0.3-1.5,0.4-3.1,1.6-4.2c1.3-1.1,2.7-1.3,4.2-0.8l-1.3-1.5l2-1.7l0.7,0.8l-1.2,1
		l4.5,5.3l1.2-1l0.7,0.8l-2,1.7L71.9,28.2L71.9,28.2z M64.7,30.9c1.3,1.5,3.6,1.7,5.1,0.4c1.6-1.3,1.8-3.6,0.4-5.2
		c-1.3-1.5-3.6-1.7-5.1-0.4C63.6,27.1,63.4,29.4,64.7,30.9 M71.9,17.7l-1,0.6l-1-1.5l1-0.6L71.9,17.7L71.9,17.7z M77.1,25.7l1.3-0.8
		l0.6,0.9l-3.5,2.3l-0.6-0.9l1.3-0.8l-3.8-5.8l-1.3,0.8l-0.6-0.9l2.2-1.5L77.1,25.7L77.1,25.7z M77.8,17.7c0-1.3,0.8-2.4,2-2.9
		c0.9-0.5,2.5-0.6,3.6,0.2c0.4,0.3,1,0.9,1.5,1.9l1.8,3.6l1.4-0.7l0.5,1l-3.8,1.9l-0.5-1l1.4-0.7l-1.6-3.3c-0.4-0.7-0.7-1.4-1.4-1.9
		c-0.8-0.5-1.8-0.3-2.6,0.1c-0.7,0.3-1.3,1-1.5,1.8c-0.2,0.9,0.1,1.6,0.5,2.3l1.7,3.4l1.4-0.7l0.5,1l-3.8,1.9l-0.5-1l1.4-0.7
		l-3.1-6.2l-1.4,0.7l-0.5-1l2.4-1.2L77.8,17.7L77.8,17.7z M90.2,19.3l2-0.7l0.4,1l-3.1,1.1l-2.7-7.5l-1.6,0.6l-0.4-1l1.6-0.6
		l-1.1-3.1l1.1-0.4l1.1,3.1l1.9-0.7l0.4,1l-1.9,0.7L90.2,19.3L90.2,19.3z M100.2,15c-0.3,1.8-1.7,3.3-3.6,3.7
		c-2.5,0.6-5.1-0.9-5.7-3.4s0.9-5.1,3.4-5.8c2.6-0.6,5.1,0.9,5.8,3.5l0.1,0.3l-8.1,1.9c0.5,1.8,2.4,2.9,4.2,2.4
		c1.3-0.3,2.3-1.2,2.6-2.5L100.2,15L100.2,15z M99,12.7c-0.7-1.7-2.6-2.6-4.4-2.2c-1.7,0.4-2.9,2.2-2.7,3.9L99,12.7L99,12.7z
		 M103.2,10c0.3-1.3,1.4-2,2.7-2.2l0.1,1.1c-2,0.4-2.7,1.7-2.5,3.6l0.4,3.6l1.5-0.2l0.1,1.1l-4.2,0.5l-0.1-1.1l1.5-0.2l-0.8-6.9
		l-1.5,0.2l-0.1-1.1l2.6-0.3L103.2,10L103.2,10z M110.9,9.2c0.6-1.1,1.9-1.7,3.1-1.7c1,0,2.5,0.6,3.1,1.8c0.2,0.5,0.5,1.3,0.4,2.4
		l-0.1,4.1h1.5v1.1l-4.2-0.1v-1.1l1.5,0.1l0.1-3.6c0-0.8,0-1.6-0.4-2.3c-0.5-0.9-1.5-1.2-2.3-1.2S112,9,111.4,9.6
		c-0.6,0.7-0.6,1.5-0.7,2.3l-0.1,3.8h1.5v1.1l-4.2-0.1v-1.1l1.5,0.1l0.2-6.9h-1.5V7.7l2.7,0.1L110.9,9.2L110.9,9.2z M127.1,16.7
		c-1,1.2-2.5,1.7-4.1,1.4s-3-1.4-3.5-2.9c-0.3-0.8-0.4-1.7-0.2-2.7c0.3-1.3,0.8-1.8,1.3-2.4c1-1.1,2.7-1.7,4.3-1.3
		c1.6,0.3,2.7,1.3,3.2,2.8l0.4-2l2.6,0.5l-0.2,1l-1.5-0.3l-1.4,6.8l1.5,0.3l-0.2,1l-2.6-0.5L127.1,16.7L127.1,16.7z M120.5,12.7
		c-0.4,1.9,0.9,3.9,2.8,4.3c2,0.4,3.9-0.9,4.3-2.9c0.4-2-0.9-3.9-2.9-4.2C122.8,9.5,120.9,10.7,120.5,12.7 M132.2,19.1l2,0.7l-0.3,1
		l-3.1-1l2.6-7.6l-1.7-0.6l0.3-1l1.7,0.6l1-3.1l1.1,0.4l-1,3.1l1.9,0.6l-0.3,1l-1.9-0.6L132.2,19.1L132.2,19.1z M137.3,21.1l1.4,0.6
		l-0.4,1l-3.9-1.7l0.4-1l1.4,0.6l2.7-6.4l-1.4-0.6l0.4-1l2.4,1L137.3,21.1L137.3,21.1z M141.1,12.4l-1-0.4l0.7-1.6l1,0.5L141.1,12.4
		L141.1,12.4z M140.5,18.6c1.3-2.3,4.2-3.1,6.5-1.8c2.2,1.3,3.1,4.2,1.8,6.4c-1.3,2.3-4.2,3.2-6.5,1.8
		C140,23.8,139.2,20.9,140.5,18.6 M147.8,22.7c1-1.7,0.4-3.9-1.3-4.9s-4-0.4-4.9,1.3c-1,1.7-0.4,3.9,1.3,5
		C144.6,25.1,146.8,24.5,147.8,22.7 M153.2,22.9c1.1-0.5,2.5-0.2,3.5,0.5c0.8,0.6,1.6,2,1.4,3.3c-0.1,0.5-0.4,1.3-1.1,2.2l-2.5,3.2
		l1.2,1l-0.7,0.8l-3.3-2.6l0.7-0.8l1.2,1l2.3-2.8c0.5-0.6,1-1.3,1.1-2.1c0.2-1-0.5-1.8-1.2-2.3c-0.6-0.5-1.5-0.7-2.3-0.6
		c-0.9,0.2-1.4,0.8-1.9,1.4l-2.4,2.9l1.2,1l-0.7,0.8l-3.3-2.6l0.7-0.8l1.2,1l4.3-5.4l-1.2-0.9l0.7-0.8l2.1,1.7L153.2,22.9
		L153.2,22.9z M161.7,38.6c-1.5,0.3-3-0.2-4.1-1.3c-1.1-1.2-1.5-2.9-1.1-4.4c0.2-0.8,0.7-1.6,1.5-2.3c1-0.9,1.7-1,2.4-1.2
		c1.5-0.3,3.1,0.3,4.2,1.5c1.1,1.2,1.4,2.7,0.9,4.2l1.5-1.3l1.8,2l-0.8,0.7l-1-1.1l-5.2,4.6l1,1.1l-0.8,0.7l-1.8-2L161.7,38.6
		L161.7,38.6z M158.8,31.4c-1.4,1.3-1.6,3.6-0.3,5.1c1.4,1.5,3.7,1.6,5.2,0.3s1.6-3.6,0.3-5.1C162.6,30.2,160.3,30.1,158.8,31.4
		 M164.4,43.6l0.9,1.2l-0.9,0.6l-2.4-3.5l0.9-0.6l0.9,1.3l8.4-5.8l-0.9-1.3l0.9-0.6l1.5,2.2L164.4,43.6L164.4,43.6z M75,130.1
		c-0.3-0.7-0.7-1.4-1.3-1.8c-1.2-0.9-2.6-0.7-3.6,0.6s-0.9,2.7,0.3,3.6c0.7,0.5,1.5,0.8,2.2,0.8l-0.8,1.8c-0.8-0.1-1.8-0.6-2.6-1.2
		c-2.2-1.7-2.7-4.1-0.9-6.3c1.7-2.2,4.2-2.5,6.5-0.8c0.8,0.6,1.5,1.5,1.9,2.3L75,130.1L75,130.1z M72.9,136.3l4.4-7.4l5.4,3.3
		l-0.9,1.5l-3.6-2.1l-0.9,1.4l2.9,1.7l-0.9,1.5l-2.9-1.7l-0.9,1.4l3.6,2.1l-0.9,1.5L72.9,136.3L72.9,136.3z M81.8,141.3l-2-0.9
		l3.5-7.9l3.2,1.4c2.1,0.9,2.8,2.4,2.1,3.9c-0.5,1-1.4,1.6-2.6,1.5l0.6,4l-2.3-1l-0.4-3.4l-1-0.3L81.8,141.3L81.8,141.3z
		 M84.6,137.6c0.9,0.3,1.5,0.2,1.8-0.6c0.3-0.7,0-1.3-1-1.7l-0.8-0.4l-1,2.2L84.6,137.6L84.6,137.6z M94,138.6l-2,6.5l-2.1-0.6
		l2-6.5l-2.6-0.8l0.5-1.7l7.3,2.2l-0.5,1.8L94,138.6L94,138.6z M96.1,146.2l1.8-8.4l2.1,0.4l-1.8,8.4L96.1,146.2L96.1,146.2z
		 M101.2,138.4l6.1,0.8l-0.2,1.8l-4-0.5l-0.2,1.8l3.2,0.4l-0.2,1.8l-3.2-0.4l-0.4,3.2l-2.1-0.3L101.2,138.4L101.2,138.4z
		 M107.6,147.8l0.4-8.6l2.2,0.1l-0.4,8.6L107.6,147.8L107.6,147.8z M117.9,141.3c-0.7-0.4-1.4-0.6-2.2-0.5c-1.5,0.1-2.4,1.1-2.3,2.7
		c0.1,1.6,1,2.6,2.6,2.6c0.8,0,1.6-0.3,2.2-0.8l0.5,1.9c-0.7,0.4-1.8,0.7-2.8,0.7c-2.8,0.1-4.6-1.4-4.8-4.3
		c-0.1-2.8,1.6-4.6,4.4-4.8c1-0.1,2.1,0.2,2.9,0.5L117.9,141.3L117.9,141.3z M127.8,146.2l-2.2,0.4l-0.9-1.7l-3.2,0.5l-0.3,1.9
		l-2.2,0.4l1.6-9l2.7-0.5L127.8,146.2L127.8,146.2z M122.3,140.1l-0.6,3.5l2.2-0.4L122.3,140.1L122.3,140.1z M130.2,138.4l1.9,6.5
		l-2.1,0.6l-2-6.5l-2.6,0.8l-0.5-1.8l7.4-2.1l0.5,1.8L130.2,138.4L130.2,138.4z M136.2,143.5l-3.1-8l2.1-0.8l3.1,8L136.2,143.5
		L136.2,143.5z M143.9,140.3c-2.3,1.2-4.7,0.6-6.1-2c-1.2-2.4-0.3-4.9,2-6.1s4.7-0.7,6.1,1.9C147.1,136.6,146.2,139.2,143.9,140.3
		 M140.6,133.9c-1.3,0.7-1.5,2-0.8,3.5c0.8,1.5,2,2.1,3.3,1.4s1.5-2,0.8-3.5C143.1,133.8,141.9,133.2,140.6,133.9 M149.2,126.6
		l1.7-1.2l5.1,7.1l-1.9,1.4l-6.2-2.5l3.3,4.5l-1.7,1.2l-5-7l1.9-1.4l6.2,2.5L149.2,126.6L149.2,126.6z"/>
	<path class="st1" d="M87.1,66c-1.4,1.3-1.4,2.7-1.5,4.3v0.2h-2.5v2.1h2.5v11.3h-2.5v2h7.3v-2h-2.6V72.6h2.6v-2.1h-2.6v-0.3
		c0-1.1,0-2.1,1-2.8c0.5-0.4,1.2-0.6,2-0.7h0.1v-2h-0.1C89.1,64.8,88,65.2,87.1,66 M96.6,83.8h2.5v2h-7.2v-2h2.6V72.6H92v-2.1h4.7
		L96.6,83.8L96.6,83.8z M104.9,78c0-3.3,1.6-5,4.7-5.3h0.1v-2h-0.1c-2.2,0.1-3.9,1-4.7,2.5v-2.5h-4.7v2.1h2.5V84h-2.5v2.1h7.2V84
		h-2.5V78L104.9,78z M125.5,72.6v11.2h2.5v2h-4.7V83c-1.4,2.1-3.5,3.2-6,3.2c-2.8,0-5.4-1.4-6.7-3.6c-0.9-1.4-1.3-2.9-1.2-4.4
		c0-2.1,0.6-3.1,1.2-4.2l0.1-0.2c1.2-2.2,3.8-3.6,6.6-3.6c2.6,0,4.6,1.1,6,3.2v-3h4.7v2h-2.5V72.6L125.5,72.6z M123.4,78.3
		c0-3.2-2.6-5.8-5.8-5.8c-3.3,0-5.9,2.6-5.9,5.9c0,3.2,2.7,5.8,5.8,5.8C120.8,84.2,123.4,81.6,123.4,78.3 M146.6,70.6h-4.7v2.8
		c-1.2-1.9-3.4-3.1-5.9-3.1c-2.6,0-5.1,1.3-6.7,3.5c-0.8,1.2-1.3,2.8-1.3,4.4c0,1.7,0.6,3.3,1.1,4.2c1.2,2.4,4.4,3.8,6.7,3.8
		c2.5,0,4.7-1.2,6-3.3V84c0,1.8-0.2,3-1.5,4.3c-1,1.1-2.6,1.8-4,1.8c-2.1,0-4-1.1-4.8-2.9v-0.1h-2.4l0.1,0.2
		c1.1,3.2,4.4,4.7,7.1,4.7c2.3,0,4.4-0.9,5.9-2.5c1.6-1.7,1.9-3.5,1.9-5.9V72.5h2.5L146.6,70.6L146.6,70.6z M142.1,78.3
		c0,3.3-2.6,6-5.9,6c-3.3,0-5.9-2.6-5.9-5.9s2.7-6,5.9-6C139.4,72.4,142.1,75,142.1,78.3 M154.5,70.3c-4.4,0-8.1,3.6-8.1,8
		s3.6,7.9,8,7.9s8-3.6,8-8.1C162.4,73.9,158.8,70.3,154.5,70.3 M160.2,78.3c0,3.2-2.6,5.8-5.8,5.8s-5.8-2.6-5.8-5.9
		c0-3.2,2.6-5.8,5.9-5.8C157.6,72.5,160.2,75.1,160.2,78.3 M167.2,65.2h-4.7v2.1h2.5v16.6h-2.7v2h7.3v-2h-2.5L167.2,65.2L167.2,65.2
		z M188,83.8v2h-4.7V83c-1.3,2-3.6,3.2-6,3.2c-2.5,0-5.2-1.5-6.5-3.6c-0.8-1.3-1.3-3-1.3-4.4c0-4.3,3.6-7.9,7.8-7.9
		c2.5,0,4.8,1.3,6.1,3.3v-6.4h-2.5v-2h4.7v18.6L188,83.8L188,83.8z M183.4,78.3c0-3.2-2.6-5.8-5.9-5.8c-3.3,0-5.9,2.7-5.9,6
		c0,3.2,2.7,5.9,5.9,5.9C180.8,84.2,183.4,81.6,183.4,78.3 M97.3,66.1c0,1-0.8,1.8-1.8,1.8s-1.8-0.8-1.8-1.8s0.8-1.8,1.8-1.8
		S97.3,65.1,97.3,66.1"/>
	<path class="st0" d="M10.8,240.7c3.9,0,7.2-1.9,9.1-4.5l-1.9-1.6c-1.7,2.2-4.1,3.6-7.1,3.6c-4.6,0-8.1-3.3-8.1-8.1s3.6-8.3,8.1-8.3
		c2.9,0,5.4,1.5,7,3.6l2-1.6c-1.7-2.7-5.1-4.6-8.9-4.6c-5.8,0-10.7,4.4-10.7,10.8C0.1,236.4,5,240.7,10.8,240.7L10.8,240.7z
		 M36.6,232.6c0-4.8-3.1-7.6-7.2-7.6c-4.5,0-7.5,3.4-7.5,7.8c0,3.9,2.3,7.9,8,7.9c2.7,0,5.1-1,6.4-2.1l-1.1-1.9
		c-1.4,1-3.5,1.7-5.3,1.7c-3.4,0-5-2.1-5.4-4.5h12C36.5,233.6,36.6,233.2,36.6,232.6L36.6,232.6z M29.4,227.3c2.4,0,4.4,1.7,4.6,4.4
		h-9.5C24.9,229.1,26.8,227.3,29.4,227.3L29.4,227.3z M39.8,240.4h2.5v-8.1c0-3.4,1.9-4.9,4.2-4.9c0.5,0,1,0.1,1.5,0.3l0.2-2.4
		c-0.6-0.2-1.2-0.2-1.7-0.2c-2,0-3.4,0.8-4.3,2.6v-2.2h-2.4V240.4L39.8,240.4z M59.7,237.5c-0.8,0.5-1.8,0.9-2.7,0.9
		c-1.8,0-2.5-1.2-2.5-3v-7.9h5.4v-2.2h-5.4V220H52v5.3h-2.7v2.2H52v7.6c0,3.4,1.5,5.6,4.7,5.6c1.4,0,2.9-0.4,3.9-1.3L59.7,237.5
		L59.7,237.5z M84.2,219.7v15.1l-12.9-15.1h-1v20.7h2.6v-15l12.7,15h1.2v-20.7H84.2L84.2,219.7z M98.4,240.7c4.6,0,7.8-3.5,7.8-7.9
		c0-4.3-3.3-7.8-7.8-7.8c-4.6,0-7.8,3.5-7.8,7.8C90.5,237.2,93.8,240.7,98.4,240.7L98.4,240.7z M98.4,238.4c-3,0-5.3-2.5-5.3-5.6
		c0-3,2.3-5.5,5.3-5.5s5.3,2.6,5.3,5.5C103.7,235.9,101.4,238.4,98.4,238.4L98.4,238.4z M110,240.8c1,0,1.7-0.7,1.7-1.7
		s-0.8-1.7-1.7-1.7c-1,0-1.7,0.7-1.7,1.7S109,240.8,110,240.8L110,240.8z M129.6,219.7h-6.8v20.7h2.6v-8h4c4.7,0,6.9-3.1,6.9-6.3
		C136.2,222.9,134.2,219.7,129.6,219.7L129.6,219.7z M129.4,229.9h-4v-7.8h4.4c2.6,0,3.8,1.9,3.8,3.8
		C133.6,227.9,132.4,229.9,129.4,229.9L129.4,229.9z M149,240.7c3.9,0,7.2-1.9,9.1-4.5l-1.9-1.6c-1.7,2.2-4.1,3.6-7.1,3.6
		c-4.6,0-8.1-3.3-8.1-8.1s3.6-8.3,8.1-8.3c2.9,0,5.4,1.5,7,3.6l2-1.6c-1.7-2.7-5.1-4.6-8.9-4.6c-5.8,0-10.7,4.4-10.7,10.8
		C138.4,236.4,143.2,240.7,149,240.7L149,240.7z M168.3,240.7c6.1,0,8-5.8,8-10.7s-2-10.7-8-10.7s-8,5.8-8,10.7
		S162.3,240.7,168.3,240.7L168.3,240.7z M168.3,238.3c-3.9,0-5.4-3.8-5.4-8.3c0-4.4,1.5-8.3,5.4-8.3s5.4,3.9,5.4,8.3
		C173.8,234.5,172.2,238.3,168.3,238.3L168.3,238.3z M187.4,240.7c6.1,0,8-5.8,8-10.7s-2-10.7-8-10.7s-8,5.8-8,10.7
		C179.3,234.9,181.3,240.7,187.4,240.7L187.4,240.7z M187.4,238.3c-3.9,0-5.4-3.8-5.4-8.3c0-4.4,1.5-8.3,5.4-8.3s5.4,3.9,5.4,8.3
		C192.8,234.5,191.2,238.3,187.4,238.3L187.4,238.3z M204.8,226.8c-1.3,0-2.5,0.4-3.4,0.9l0.7-5.7h8.2v-2.3H200l-1.2,10.3l1.8,0.9
		c1.1-1.1,2.5-1.7,3.9-1.7c2.7,0,4.6,2,4.6,4.5c0,2.6-2,4.6-4.7,4.6c-1.7,0-3.6-0.8-5.2-2.2l-1.3,2c1.9,1.6,4.3,2.5,6.6,2.5
		c4.2,0,7.3-2.9,7.3-7C211.7,229.7,208.7,226.8,204.8,226.8L204.8,226.8z M218.3,219.7l-5.8,4.9l1.5,1.8l3.8-3.2v17.2h2.6v-20.7
		H218.3L218.3,219.7z"/>
	<path class="st0" d="M66,187.6h-6.8v20.7h2.6v-8h4c4.7,0,6.9-3.1,6.9-6.3C72.6,190.8,70.6,187.6,66,187.6L66,187.6z M65.8,197.9h-4
		v-7.8h4.4c2.6,0,3.8,1.9,3.8,3.8S68.8,197.9,65.8,197.9L65.8,197.9z M75.5,208.3H78v-8.1c0-3.4,1.9-4.9,4.2-4.9
		c0.5,0,1,0.1,1.5,0.3l0.2-2.4c-0.6-0.2-1.2-0.2-1.7-0.2c-2,0-3.4,0.8-4.3,2.6v-2.2h-2.4L75.5,208.3L75.5,208.3z M92.5,208.7
		c4.6,0,7.8-3.5,7.8-7.9c0-4.3-3.3-7.8-7.8-7.8c-4.6,0-7.8,3.5-7.8,7.8C84.6,205.2,87.9,208.7,92.5,208.7L92.5,208.7z M92.5,206.4
		c-3,0-5.3-2.5-5.3-5.6c0-3,2.3-5.5,5.3-5.5s5.3,2.6,5.3,5.5C97.8,203.9,95.5,206.4,92.5,206.4L92.5,206.4z M115.5,187.1v8.5
		c-1.3-1.7-3.2-2.6-5.4-2.6c-4.3,0-7.5,3.5-7.5,7.8c0,4.4,3.2,7.9,7.6,7.9c2.1,0,4-0.8,5.3-2.5v2.1h2.5v-21.2H115.5L115.5,187.1z
		 M110.5,206.4c-3.2,0-5.3-2.5-5.3-5.6c0-3,2-5.5,5.3-5.5c3.2,0,5.3,2.6,5.3,5.5C115.7,203.9,113.7,206.4,110.5,206.4L110.5,206.4z
		 M128.5,208.7c4,0,6.4-2.4,6.4-6.4v-9h-2.5v8.9c0,2.5-1.4,4.1-3.9,4.1s-3.9-1.6-3.9-4.1v-8.9h-2.5v9
		C122.1,206.2,124.6,208.7,128.5,208.7L128.5,208.7z M145.8,208.7c2.9,0,5.6-1.6,6.8-3.8l-2.1-1.2c-0.9,1.6-2.9,2.7-4.8,2.7
		c-3.1,0-5.4-2.4-5.4-5.5c0-3.2,2.4-5.6,5.5-5.6c2,0,3.7,1.1,4.7,2.8l2.1-1.2c-1.1-2.4-3.8-3.9-6.8-3.9c-4.7,0-8,3.3-8,7.9
		C137.9,205.4,141.2,208.7,145.8,208.7L145.8,208.7z M164.3,205.5c-0.8,0.5-1.8,0.9-2.7,0.9c-1.8,0-2.5-1.2-2.5-3v-7.9h5.4v-2.2
		h-5.4V188h-2.5v5.3h-2.7v2.2h2.7v7.6c0,3.4,1.5,5.6,4.7,5.6c1.4,0,2.9-0.4,3.9-1.3L164.3,205.5L164.3,205.5z"/>
</g>
</svg>
