<?xml version="1.0" encoding="utf-8"?>
<!-- Generator: Adobe Illustrator 25.0.1, SVG Export Plug-In . SVG Version: 6.00 Build 0)  -->
<svg version="1.1" id="Layer_1" xmlns="http://www.w3.org/2000/svg" xmlns:xlink="http://www.w3.org/1999/xlink" x="0px" y="0px"
	 viewBox="0 0 279.4 324.98" style="enable-background:new 0 0 279.4 324.98;" xml:space="preserve">
<style type="text/css">
	.st0{fill:#002A3A;}
</style>
<g>
	<path class="st0" d="M161.51,112.7c2.9,2.9,7.59,2.9,10.48,0c2.89-2.89,2.89-7.59,0-10.48l-16.36-16.36V44.47
		c0-4.09-3.32-7.41-7.41-7.41c-4.1,0-7.41,3.32-7.41,7.41v44.47c0,1.97,0.78,3.85,2.17,5.24L161.51,112.7z"/>
	<path class="st0" d="M65.98,122.28H44.47c-4.09,0-7.41,3.32-7.41,7.42c0,4.09,3.32,7.41,7.41,7.41h29.13
		c6.37,10.43,15.39,19.16,25.49,25.94H29.65c-4.1,0-7.41,3.32-7.41,7.41c0,4.1,3.32,7.41,7.41,7.41h118.58
		c49.11,0,88.93-39.82,88.93-88.93S197.34,0,148.23,0c-30.52,0.38-58.01,15.16-74.77,40.76H59.29c-4.09,0-7.41,3.32-7.41,7.42
		c0,4.09,3.32,7.41,7.41,7.41h6.48c-3.48,8.22-5.37,17.07-6.17,25.94H7.41c-4.1,0-7.41,3.31-7.41,7.41c0,4.09,3.31,7.41,7.41,7.41
		H59.7C60.34,105.25,62.71,114.01,65.98,122.28z M85.23,81.52H74.5c0.92-9.02,3.41-17.85,7.53-25.94h14.31
		c4.1,0,7.41-3.32,7.41-7.41c0-4.1-3.31-7.42-7.41-7.42h-4.43c13.66-16.55,35.04-25.84,56.31-25.94c40.93,0,74.11,33.18,74.11,74.11
		s-33.19,74.11-74.11,74.11c-21.36-0.27-42.55-9.3-56.31-25.94h4.43c4.1,0,7.41-3.32,7.41-7.41c0-4.1-3.31-7.42-7.41-7.42H82.03
		c-3.93-8.16-6.78-16.85-7.53-25.94h10.73c4.1,0,7.41-3.32,7.41-7.41C92.64,84.84,89.32,81.52,85.23,81.52z"/>
	<polygon class="st0" points="41,324.33 61.29,324.33 61.29,317.24 49.08,317.24 49.08,310.11 60.77,310.11 60.77,303.02 
		49.08,303.02 49.08,295.97 61.29,295.97 61.29,288.88 41,288.88 	"/>
	<path class="st0" d="M276.97,307.85c-1.62-1.67-3.57-3-5.87-3.97c-1.32-0.57-2.29-1-2.92-1.29c-0.63-0.29-1.36-0.66-2.19-1.14
		c-0.83-0.47-1.42-0.91-1.77-1.33c-0.34-0.42-0.51-0.87-0.51-1.35c0-0.98,0.36-1.74,1.09-2.32s1.77-0.86,3.11-0.86
		c1.09,0,2.27,0.23,3.53,0.69c1.26,0.46,2.12,0.82,2.58,1.1c0.46,0.27,0.82,0.49,1.08,0.66l3.26-6.45l-1.29-0.86
		c-0.89-0.55-2.25-1.1-4.08-1.65c-1.84-0.56-3.71-0.84-5.63-0.84c-3.01,0-5.69,1.01-8.04,3.03c-2.35,2.02-3.53,4.62-3.53,7.8
		c0,1.84,0.59,3.55,1.77,5.14s2.84,2.92,4.99,3.97c0.51,0.26,1.31,0.64,2.38,1.14c1.08,0.5,1.85,0.87,2.32,1.12
		c0.48,0.24,1.02,0.57,1.64,0.98c0.61,0.42,1.04,0.83,1.29,1.25c0.24,0.42,0.36,0.87,0.36,1.35c0,2.32-1.71,3.49-5.12,3.49
		c-1.17,0-2.53-0.38-4.06-1.12c-1.54-0.74-2.6-1.34-3.2-1.78c-0.6-0.44-1.07-0.8-1.42-1.09l-4.04,6.79l0.56,0.47
		c0.38,0.31,0.96,0.7,1.76,1.16c0.8,0.46,1.71,0.92,2.71,1.39c1,0.48,2.25,0.87,3.74,1.18c1.49,0.32,3.01,0.47,4.56,0.47
		c1.81,0,3.48-0.21,5.03-0.62c1.55-0.42,2.96-1.05,4.24-1.91c1.28-0.86,2.27-2.04,3-3.57s1.1-3.29,1.1-5.33
		C279.4,311.43,278.59,309.53,276.97,307.85z"/>
	<polygon class="st0" points="23.73,288.88 15.65,288.88 15.65,324.33 35.93,324.33 35.93,317.24 23.73,317.24 	"/>
	<path class="st0" d="M77.79,288.88l-14.31,35.46h8.68l2.62-7.09h13.49l2.63,7.09h8.68l-14.31-35.46H77.79z M77.53,310.15
		l3.96-10.31h0.09l3.95,10.31H77.53z"/>
	<rect x="172.26" y="288.88" class="st0" width="8.08" height="35.46"/>
	<polygon class="st0" points="143.33,295.97 151.76,295.97 151.76,324.33 159.84,324.33 159.84,295.97 168.26,295.97 168.26,288.88 
		143.33,288.88 	"/>
	<path class="st0" d="M112.3,288.88h-10.27v35.46h10.27c4.95,0,9.17-1.68,12.66-5.05c3.48-3.36,5.22-7.6,5.22-12.7
		c0-5.07-1.75-9.29-5.25-12.66S117.23,288.88,112.3,288.88z M118.6,314.13c-1.88,1.99-4.29,2.99-7.24,2.99h-1.25V296.1h1.25
		c2.98,0,5.41,1,7.29,3.01s2.81,4.51,2.81,7.52C121.43,309.64,120.48,312.14,118.6,314.13z"/>
	<polygon class="st0" points="212.18,288.88 204.32,309.33 196.45,288.88 187.86,288.88 184.68,324.33 192.76,324.33 194.43,303.32 
		194.65,303.32 201.91,324.12 206.72,324.12 213.99,303.32 214.2,303.32 215.88,324.33 223.96,324.33 220.78,288.88 	"/>
	<polygon class="st0" points="228.3,324.33 248.59,324.33 248.59,317.24 236.38,317.24 236.38,310.11 248.07,310.11 248.07,303.02 
		236.38,303.02 236.38,295.97 248.59,295.97 248.59,288.88 228.3,288.88 	"/>
	<path class="st0" d="M175.59,267.31c0.73-1.52,1.1-3.29,1.1-5.33c0-2.12-0.81-4.02-2.43-5.7c-1.62-1.67-3.57-3-5.86-3.97
		c-1.32-0.57-2.29-1-2.93-1.29c-0.63-0.29-1.36-0.66-2.19-1.14c-0.83-0.47-1.42-0.91-1.76-1.33c-0.34-0.42-0.52-0.87-0.52-1.35
		c0-0.98,0.36-1.74,1.09-2.32s1.77-0.86,3.11-0.86c1.09,0,2.27,0.23,3.53,0.69c1.26,0.46,2.12,0.82,2.58,1.1
		c0.46,0.27,0.82,0.49,1.08,0.66l3.27-6.45l-1.29-0.86c-0.89-0.55-2.25-1.1-4.08-1.65c-1.84-0.56-3.71-0.84-5.63-0.84
		c-3.01,0-5.69,1.01-8.04,3.03c-2.35,2.02-3.52,4.62-3.52,7.8c0,1.84,0.59,3.55,1.76,5.14s2.84,2.92,4.99,3.97
		c0.52,0.26,1.31,0.64,2.38,1.14c1.08,0.51,1.85,0.88,2.32,1.12c0.48,0.24,1.02,0.57,1.64,0.99c0.61,0.42,1.04,0.83,1.29,1.25
		c0.24,0.42,0.36,0.87,0.36,1.35c0,2.32-1.71,3.48-5.12,3.48c-1.17,0-2.53-0.37-4.06-1.12c-1.54-0.74-2.6-1.34-3.2-1.78
		c-0.6-0.44-1.07-0.8-1.41-1.09l-4.04,6.79l0.56,0.47c0.38,0.31,0.96,0.7,1.76,1.16c0.8,0.46,1.71,0.92,2.71,1.39
		c1,0.48,2.25,0.87,3.74,1.18c1.49,0.32,3.01,0.47,4.56,0.47c1.81,0,3.49-0.21,5.03-0.62c1.54-0.42,2.96-1.05,4.23-1.91
		S174.86,268.83,175.59,267.31z"/>
	<polygon class="st0" points="113.29,251.45 101.82,251.45 101.82,244.4 114.24,244.4 114.24,237.31 93.74,237.31 93.74,272.76 
		101.82,272.76 101.82,258.54 113.29,258.54 	"/>
	<path class="st0" d="M135.68,237.31h-7.47l-14.32,35.46h8.68l2.62-7.09h13.49l2.62,7.09H150L135.68,237.31z M127.95,258.58
		l3.96-10.31h0.08l3.96,10.31H127.95z"/>
	<polygon class="st0" points="193.75,272.76 193.75,244.4 202.17,244.4 202.17,237.31 177.24,237.31 177.24,244.4 185.67,244.4 
		185.67,272.76 	"/>
</g>
</svg>
