<?xml version="1.0" encoding="utf-8"?>
<!-- Generator: Adobe Illustrator 27.5.0, SVG Export Plug-In . SVG Version: 6.00 Build 0)  -->
<svg version="1.1" id="Layer_1" xmlns="http://www.w3.org/2000/svg" xmlns:xlink="http://www.w3.org/1999/xlink" x="0px" y="0px"
	 viewBox="0 0 491.8 708.7" style="enable-background:new 0 0 491.8 708.7;" xml:space="preserve">
<style type="text/css">
	.st0{fill:#334041;}
</style>
<g>
	<path class="st0" d="M433,169.2c-2.1-7.7,0-17.4,2-26.8c2.5-11.7,5-23.7-0.1-32.5c-5.2-9-17-12.8-28.5-16.5
		c-9.1-2.9-18.4-6-23.9-11.5c-5.5-5.5-8.5-14.9-11.5-23.9c-3.7-11.4-7.5-23.3-16.5-28.5c-8.8-5.1-20.9-2.6-32.5-0.1
		c-9.4,2-19.1,4.1-26.8,2c-7.3-1.9-14.1-8.1-21.4-14.7C264.6,8.4,255.3,0,244.6,0c-10.7,0-20,8.4-29.1,16.6
		c-7.3,6.6-14.1,12.8-21.4,14.7c-7.7,2.1-17.4,0-26.8-2c-11.7-2.5-23.7-5-32.5,0.1c-9,5.2-12.8,17-16.5,28.5
		c-2.9,9.1-6,18.4-11.5,23.9c-5.5,5.5-14.9,8.5-23.9,11.5c-11.4,3.7-23.3,7.5-28.5,16.5c-5.1,8.8-2.6,20.9-0.1,32.5
		c2,9.4,4.1,19.1,2,26.8c-2,7.3-8.1,14.2-14.7,21.4c-8.2,9-16.6,18.4-16.6,29.1s8.4,20,16.6,29.1c6.6,7.3,12.8,14.1,14.7,21.4
		c2.1,7.7,0,17.4-2,26.8c-2.5,11.7-5,23.7,0.1,32.5c5.2,9,17,12.8,28.5,16.5c9.1,2.9,18.4,6,23.9,11.5c5.5,5.5,8.5,14.9,11.5,23.9
		c3.7,11.4,7.5,23.3,16.5,28.5c8.8,5.1,20.9,2.6,32.5,0.1c2-0.4,4-0.8,5.9-1.2v83.5l71.4-33.1l71.4,33.1v-83.5c2,0.4,4,0.8,5.9,1.2
		c11.7,2.5,23.7,5,32.5-0.1c9-5.2,12.8-17,16.5-28.5c2.9-9.1,6-18.4,11.5-23.9c5.5-5.5,14.9-8.5,23.9-11.5
		c11.4-3.7,23.3-7.5,28.5-16.5c5.1-8.8,2.6-20.9,0.1-32.5c-2-9.4-4.1-19.1-2-26.8c1.9-7.3,8.1-14.2,14.7-21.4
		c8.2-9,16.6-18.4,16.6-29.1c0-10.7-8.4-20-16.6-29.1C441.1,183.3,434.9,176.5,433,169.2z M244.6,373.5
		c-85,0-153.9-68.9-153.9-153.9c0-85,68.9-153.9,153.9-153.9c85,0,153.9,68.9,153.9,153.9C398.5,304.6,329.6,373.5,244.6,373.5z"/>
	<path class="st0" d="M147.4,234.4v25.4h90v-28h-47.7l19-19.9c17.5-18.2,27.6-33.1,27.6-49c0-24.1-19-41.8-45.1-41.8
		c-16.2,0-33.7,6.8-49.1,21.7l16.4,21.9c10.3-9.4,20.4-14.9,29.8-14.9c9.4,0,16.7,6.1,16.7,15.5c0,9.8-8.5,17.9-15.8,25.6
		L147.4,234.4z"/>
	<path class="st0" d="M300.3,172.4c-6.3,0-12,1.1-16.9,2.8l2.4-23.6h51.2v-28h-73.6l-7,68.1l16.9,14.9c6.4-5.7,14-8.7,21.7-8.7
		c12,0,20.8,7.5,20.8,17.7c0,9.6-7.5,18.2-22.6,18.2c-9.8,0-21.5-3.5-33.3-10.9l-11.6,24.3c14.4,9.6,30.6,14.5,46.4,14.5
		c32,0,51.5-20.2,51.5-46.2C346.1,189.2,325.5,172.4,300.3,172.4z"/>
	<polygon class="st0" points="172.4,299.8 163.2,280.8 154.3,280.8 168.6,308 168.6,322.6 176.4,322.6 176.4,308 190.8,280.8 
		181.9,280.8 	"/>
	<polygon class="st0" points="195.2,322.6 223,322.6 223,315.4 203,315.4 203,305.1 221.5,305.1 221.5,297.9 203,297.9 203,288 
		223,288 223,280.8 195.2,280.8 	"/>
	<path class="st0" d="M243.1,280.8l-16.2,41.9h8.2l3.5-9.5h14.8l3.5,9.5h8.2l-16-41.9H243.1z M240.8,306.1l5.2-14.3l5.2,14.3H240.8z
		"/>
	<path class="st0" d="M299.4,293.9c0-6.8-4.5-13.1-14-13.1h-15.6v41.9h7.7v-15.7h5.2l9.3,15.7h9.2L290.6,306
		C296.8,304,299.4,299,299.4,293.9z M284.5,300h-7v-12h7.9c4,0,6.1,2.8,6.1,5.9C291.5,297,289.6,300,284.5,300z"/>
	<path class="st0" d="M326.7,300.5c-2.8-1.5-7.2-3.2-9.4-4.3c-1.8-0.9-3.5-2.2-3.5-4.4c0-2.6,2.3-4.4,5.7-4.4c2.8,0,6.6,1.3,9,4.1
		l4.3-5.5c-3.7-4.1-8.6-5.8-13.4-5.8c-8.3,0-13.9,5.3-13.9,12c0,5,2.9,8.2,6.6,10.3c2.9,1.7,6.3,2.7,9.1,4c2.2,1.1,3.9,2.5,3.9,4.8
		c0,2.8-2.5,4.9-6.4,4.9c-4.2,0-8.2-2-10.9-6.1l-4.6,5.3c3.4,5.3,9.2,8,15.5,8c8.9,0,15-5.2,15-12.6
		C333.6,305.6,330.7,302.5,326.7,300.5z"/>
	<path class="st0" d="M158.8,548.4c0-12.9-10.3-23.4-23.6-23.4c-13.3,0-23.7,10.5-23.7,23.4c0,12.6,9.9,22.8,22.7,23.4
		c4.8,6.3,11.1,8.8,17.2,8.8c2.8,0,5.6-0.6,8.2-1.5l-1.2-7.4c-2.1,0.7-4.3,1.1-6.4,1.1c-3.2,0-5.6-1-7.7-2.8
		C153,566.6,158.8,558.2,158.8,548.4z M135.3,563c-8,0-14.4-6.1-14.4-14.5c0-8.5,6.4-14.7,14.4-14.7s14.3,6.3,14.3,14.7
		C149.6,556.9,143.3,563,135.3,563z"/>
	<path class="st0" d="M165.2,525.8v28.8c0,12,8.2,17.4,17.7,17.4c9.5,0,17.7-5.4,17.7-17.4v-28.8h-9.2v28.2c0,6.1-3.4,9.1-8.5,9.1
		c-5.1,0-8.6-2.9-8.6-9.1v-28.2H165.2z"/>
	<path class="st0" d="M216.5,561.3h15.8l3.4,9.8h9.6l-17.1-45.3h-7.4l-17.3,45.3h9.5L216.5,561.3z M224.5,538.1l5.3,15.1h-10.7
		L224.5,538.1z"/>
	<polygon class="st0" points="250.2,525.8 250.2,571.1 282.3,571.1 282.3,562.4 259.3,562.4 259.3,525.8 	"/>
	<rect x="287.3" y="525.8" class="st0" width="9.1" height="45.3"/>
	<polygon class="st0" points="301.4,534.6 314.4,534.6 314.4,571.1 323.6,571.1 323.6,534.6 336.5,534.6 336.5,525.8 301.4,525.8 	
		"/>
	<polygon class="st0" points="363.7,571.1 363.7,555.4 379.4,525.8 368.9,525.8 359.1,545.7 349.6,525.8 339.1,525.8 354.6,555.4 
		354.6,571.1 	"/>
	<path class="st0" d="M80.7,604.6c4.8,0,9.2,2,12.3,5.1l6-6.5c-3.9-4.2-10.7-7.4-18.3-7.4c-13.4,0-24,9.7-24,23.5
		c0,13.4,9.9,23.3,23.6,23.3c8,0,15.2-3.3,20.7-9v-18.7H80.2v7.9h12.5v6.2c-2.8,2.8-7.3,4.8-12.1,4.8c-8.6,0-14.5-6.5-14.5-14.7
		C66,610.8,72.2,604.6,80.7,604.6z"/>
	<path class="st0" d="M144,625.4v-28.8h-9.2v28.2c0,6.1-3.4,9.1-8.5,9.1c-5.1,0-8.6-2.9-8.6-9.1v-28.2h-9.1v28.8
		c0,12,8.2,17.4,17.7,17.4C135.8,642.7,144,637.3,144,625.4z"/>
	<path class="st0" d="M175.8,632.1l3.4,9.8h9.6l-17.1-45.3h-7.4l-17.3,45.3h9.5l3.5-9.8H175.8z M167.9,608.9l5.3,15.1h-10.7
		L167.9,608.9z"/>
	<path class="st0" d="M226.4,610.9c0-7.5-4.9-14.4-15.5-14.4h-17.4v45.3h9.1v-16.5h5.4l9.6,16.5h10.6l-11-17.7
		C223.7,621.9,226.4,616.4,226.4,610.9z M210.1,617.3h-7.4V605h8.2c4.1,0,6.3,2.8,6.3,6.1C217.1,614.2,215.2,617.3,210.1,617.3z"/>
	<path class="st0" d="M244.4,632.1h15.8l3.4,9.8h9.6l-17.1-45.3h-7.4l-17.3,45.3h9.5L244.4,632.1z M252.4,608.9l5.3,15.1H247
		L252.4,608.9z"/>
	<polygon class="st0" points="278.1,596.6 278.1,641.9 287,641.9 287,614.1 310.5,641.9 316.7,641.9 316.7,596.6 307.8,596.6 
		307.8,624.6 283.8,596.6 	"/>
	<polygon class="st0" points="321.8,605.3 334.7,605.3 334.7,641.9 343.9,641.9 343.9,605.3 356.9,605.3 356.9,596.6 321.8,596.6 	
		"/>
	<polygon class="st0" points="392.6,633.5 371,633.5 371,623.3 391,623.3 391,614.8 371,614.8 371,605 392.6,605 392.6,596.6 
		361.9,596.6 361.9,641.9 392.6,641.9 	"/>
	<polygon class="st0" points="400.9,641.9 431.6,641.9 431.6,633.5 410,633.5 410,623.3 430,623.3 430,614.8 410,614.8 410,605 
		431.6,605 431.6,596.6 400.9,596.6 	"/>
	<polygon class="st0" points="29.8,669.7 22.6,669.7 6,689.7 6,669.7 0,669.7 0,708 6,708 6,697.8 11.1,691.7 23.7,708 31,708 
		15,687.5 	"/>
	<rect x="35.1" y="669.7" class="st0" width="6" height="38.4"/>
	<polygon class="st0" points="45.7,675.5 56.9,675.5 56.9,708 63,708 63,675.5 74.2,675.5 74.2,669.7 45.7,669.7 	"/>
	<path class="st0" d="M95.4,702.8c-7.8,0-13.8-5.7-13.8-13.9c0-8.2,6.2-14.2,13.9-14.2c5,0,9.3,2.5,12.1,6.3l4.3-3.8
		c-3.2-4.8-9.4-8.3-16.5-8.3c-10.8,0-19.9,8.2-19.9,20c0,11.7,8.9,19.6,19.7,19.6c7.3,0,13.4-3.5,16.9-8.3l-4.3-3.7
		C104.9,700.4,100.5,702.8,95.4,702.8z"/>
	<polygon class="st0" points="141.7,685.6 123.4,685.6 123.4,669.7 117.5,669.7 117.5,708 123.4,708 123.4,691.4 141.7,691.4 
		141.7,708 147.7,708 147.7,669.7 141.7,669.7 	"/>
	<polygon class="st0" points="162.5,691.4 179.7,691.4 179.7,685.8 162.5,685.8 162.5,675.3 181.1,675.3 181.1,669.7 156.6,669.7 
		156.6,708 181.1,708 181.1,702.4 162.5,702.4 	"/>
	<polygon class="st0" points="213.6,695.9 191.3,669.7 188.1,669.7 188.1,708 194.1,708 194.1,682 216,708 219.6,708 219.6,669.7 
		213.6,669.7 	"/>
	<path class="st0" d="M259.3,702.8c-7.8,0-13.8-5.7-13.8-13.9c0-8.2,6.2-14.2,13.9-14.2c5,0,9.3,2.5,12.1,6.3l4.3-3.8
		c-3.2-4.8-9.4-8.3-16.5-8.3c-10.8,0-19.9,8.2-19.9,20c0,11.7,8.9,19.6,19.7,19.6c7.3,0,13.4-3.5,16.9-8.3l-4.3-3.7
		C268.8,700.4,264.4,702.8,259.3,702.8z"/>
	<path class="st0" d="M292.8,669.7L277.6,708h6.4l3.6-9.4h14.1l3.6,9.4h6.4l-15.1-38.4H292.8z M289.5,693.1l5.2-13.9l5.2,13.9H289.5
		z"/>
	<path class="st0" d="M337.6,687.1c3.2-1.2,5.2-4.4,5.2-7.8c0-4.7-3.5-9.6-10.7-9.6h-15.6V708h16.4c7.8,0,12-5.4,12-11.1
		C344.8,692.6,342.5,688.4,337.6,687.1z M322.4,675.1h8.8c3.6,0,5.5,2.3,5.5,4.8c0,2.5-1.9,5.1-5.7,5.1h-8.6V675.1z M331.8,702.6
		h-9.4v-12.3h9.2c4.8,0,7,3.1,7,6.2C338.6,699.5,336.3,702.6,331.8,702.6z"/>
	<rect x="351.6" y="669.7" class="st0" width="6" height="38.4"/>
	<polygon class="st0" points="391.9,695.9 369.5,669.7 366.4,669.7 366.4,708 372.3,708 372.3,682 394.2,708 397.8,708 397.8,669.7 
		391.9,669.7 	"/>
	<polygon class="st0" points="412.6,691.4 429.8,691.4 429.8,685.8 412.6,685.8 412.6,675.3 431.2,675.3 431.2,669.7 406.7,669.7 
		406.7,708 431.2,708 431.2,702.4 412.6,702.4 	"/>
	<polygon class="st0" points="435,675.5 446.2,675.5 446.2,708 452.3,708 452.3,675.5 463.5,675.5 463.5,669.7 435,669.7 	"/>
	<path class="st0" d="M485.9,688.3c-2.6-1.5-7-3.2-9-4.4c-1.7-0.9-3.2-2.3-3.2-4.6c0-2.9,2.4-4.7,5.7-4.7c2.5,0,5.7,1.1,7.9,3.9
		l3.7-4.1c-3.2-3.9-7.5-5.5-11.7-5.5c-7.3,0-12,4.7-12,10.6c0,4.4,2.5,7.3,5.8,9.3c2.6,1.6,5.8,2.6,8.3,3.9c2,1.1,3.8,2.5,3.8,4.9
		c0,2.8-2.4,5.2-6.5,5.2c-3.7,0-7.3-1.9-9.5-5.9l-4,3.9c2.9,5.1,8.1,7.6,13.6,7.6c7.6,0,13.1-4.6,13.1-11.2
		C491.8,693,489.4,690.2,485.9,688.3z"/>
</g>
</svg>
