<svg width="1920" height="1921" viewBox="0 0 1920 1921" fill="none" xmlns="http://www.w3.org/2000/svg">
<rect x="7.67997" y="7.6873" width="1904.64" height="1904.64" fill="white" stroke="#FFD100" stroke-width="15.3599"/>
<path d="M216.775 1232.47C240.852 1232.47 257.39 1222.5 266.388 1210.58L270.036 1231.01H295.572V1136.4H219.451V1165.34H261.767V1167.53C258.363 1191.37 238.663 1201.58 219.207 1201.58C190.024 1201.58 173 1178.72 173 1145.89C173 1113.06 190.753 1090.2 219.207 1090.2C240.123 1090.2 253.742 1102.6 258.119 1121.32H294.599C290.222 1084.6 261.281 1059.31 220.18 1059.31C167.892 1059.31 135.79 1093.6 135.79 1145.89C135.79 1198.18 168.136 1232.47 216.775 1232.47ZM383.129 1232.47C423.014 1232.47 449.036 1207.17 449.036 1168.51C449.036 1130.08 423.014 1104.54 383.129 1104.54C343.245 1104.54 317.222 1130.08 317.222 1168.51C317.222 1206.93 343.245 1232.47 383.129 1232.47ZM383.129 1204.5C363.917 1204.5 352.243 1189.66 352.243 1168.51C352.243 1147.35 363.917 1132.51 383.129 1132.51C402.342 1132.51 414.259 1147.35 414.259 1168.51C414.259 1189.66 402.342 1204.5 383.129 1204.5ZM467.911 1231.01H502.202V1060.77H467.911V1231.01ZM616.811 1121.57C608.786 1111.35 596.383 1104.54 579.116 1104.54C545.797 1104.54 521.234 1129.59 521.234 1168.26C521.234 1207.9 545.797 1232.47 579.359 1232.47C597.356 1232.47 609.515 1224.44 617.784 1213.74L621.189 1231.01H651.103V1060.77H616.811V1121.57ZM586.898 1204.5C568.172 1204.5 556.255 1189.91 556.255 1168.51C556.255 1147.1 568.172 1132.51 586.898 1132.51C605.624 1132.51 617.298 1147.35 617.298 1168.75C617.298 1189.91 605.624 1204.5 586.898 1204.5ZM728.282 1092.14H777.408V1231.01H813.888V1092.14H863.258V1060.77H728.282V1092.14ZM939.569 1106C920.113 1106 910.385 1113.54 903.576 1124.73L900.414 1106H869.284V1231.01H903.576V1169.72C903.576 1150.75 911.358 1137.13 931.787 1137.13H945.406V1106H939.569ZM1044.14 1168.51C1044.14 1191.61 1034.17 1204.01 1017.14 1204.01C1000.12 1204.01 992.824 1193.07 992.824 1170.69V1106H958.533V1175.32C958.533 1219.58 982.366 1232.47 1008.15 1232.47C1025.9 1232.47 1036.84 1225.66 1044.87 1215.93L1048.03 1231.01H1078.43V1106H1044.14V1168.51ZM1096.43 1189.42C1097.89 1216.17 1121.48 1232.47 1156.26 1232.47C1189.82 1232.47 1213.17 1216.66 1213.17 1191.85C1213.17 1163.64 1189.34 1157.08 1160.64 1154.16C1142.64 1151.97 1131.94 1151 1131.94 1141.51C1131.94 1133.48 1140.7 1128.62 1154.07 1128.62C1167.93 1128.62 1177.42 1134.7 1178.39 1144.67H1211.22C1209.52 1119.14 1186.42 1104.3 1152.86 1104.3C1120.75 1104.06 1099.11 1120.35 1099.11 1145.16C1099.11 1170.94 1121.73 1177.5 1150.91 1180.91C1171.1 1183.58 1179.61 1184.31 1179.61 1194.53C1179.61 1203.28 1170.85 1207.9 1156.5 1207.9C1139.72 1207.9 1130.24 1200.36 1129.02 1189.42H1096.43ZM1240.23 1195.26C1240.23 1219.09 1252.15 1231.01 1275.98 1231.01H1303.95V1202.07H1286.93C1277.93 1202.07 1274.52 1198.42 1274.52 1189.66V1134.94H1303.22V1106H1274.52V1070.98H1240.23V1106H1219.56V1134.94H1240.23V1195.26ZM1379.69 1232.47C1413.01 1232.47 1434.66 1213.01 1438.55 1188.69H1404.74C1401.82 1200.36 1392.1 1206.44 1378.23 1206.44C1360.97 1206.44 1349.54 1195.74 1348.81 1177.99V1176.29H1439.52C1440.25 1172.4 1440.49 1168.26 1440.49 1164.61C1440.01 1127.89 1414.71 1104.54 1377.26 1104.54C1338.59 1104.54 1313.06 1129.84 1313.06 1168.75C1313.06 1207.42 1338.11 1232.47 1379.69 1232.47ZM1349.54 1153.91C1351.48 1139.08 1362.67 1130.08 1377.5 1130.08C1393.07 1130.08 1403.53 1138.59 1405.96 1153.91H1349.54ZM1549.95 1121.57C1541.92 1111.35 1529.52 1104.54 1512.25 1104.54C1478.93 1104.54 1454.37 1129.59 1454.37 1168.26C1454.37 1207.9 1478.93 1232.47 1512.49 1232.47C1530.49 1232.47 1542.65 1224.44 1550.92 1213.74L1554.32 1231.01H1584.24V1060.77H1549.95V1121.57ZM1520.03 1204.5C1501.31 1204.5 1489.39 1189.91 1489.39 1168.51C1489.39 1147.1 1501.31 1132.51 1520.03 1132.51C1538.76 1132.51 1550.43 1147.35 1550.43 1168.75C1550.43 1189.91 1538.76 1204.5 1520.03 1204.5ZM135.79 1413.07C136.033 1447.61 163.028 1470.47 206.318 1470.47C246.203 1470.47 272.468 1448.58 272.711 1416.72C272.954 1382.43 247.175 1373.67 217.991 1368.32C189.78 1362.97 176.404 1360.05 176.404 1346.19C176.404 1333.06 187.592 1326.49 203.156 1326.49C220.91 1326.49 231.854 1336.46 233.556 1350.81H269.307C268.82 1318.22 243.284 1297.31 203.156 1297.31C164.731 1297.31 139.681 1318.71 139.681 1348.87C139.681 1383.4 164.974 1392.64 193.672 1397.99C222.126 1403.59 235.988 1406.51 235.988 1420.85C235.988 1434.23 223.585 1441.53 206.804 1441.53C185.889 1441.53 172.756 1430.1 171.54 1413.56L135.79 1413.07ZM353.697 1470.47C387.015 1470.47 408.66 1451.01 412.551 1426.69H378.746C375.828 1438.36 366.1 1444.44 352.237 1444.44C334.97 1444.44 323.54 1433.74 322.81 1415.99V1414.29H413.524C414.253 1410.4 414.496 1406.26 414.496 1402.61C414.01 1365.89 388.717 1342.54 351.265 1342.54C312.596 1342.54 287.06 1367.84 287.06 1406.75C287.06 1445.42 312.11 1470.47 353.697 1470.47ZM323.54 1391.91C325.486 1377.08 336.673 1368.08 351.508 1368.08C367.073 1368.08 377.53 1376.59 379.962 1391.91H323.54ZM503.521 1344C484.065 1344 474.337 1351.54 467.527 1362.73L464.366 1344H433.236V1469.01H467.527V1407.72C467.527 1388.75 475.309 1375.13 495.738 1375.13H509.357V1344H503.521ZM559.88 1469.01H602.44L647.432 1344H611.438L581.768 1433.99L551.611 1344H514.888L559.88 1469.01ZM676.127 1330.63C687.315 1330.63 696.07 1322.36 696.07 1311.41C696.07 1300.23 687.315 1291.96 676.127 1291.96C664.94 1291.96 656.185 1300.23 656.185 1311.41C656.185 1322.36 664.94 1330.63 676.127 1330.63ZM658.86 1469.01H693.395V1344H658.86V1469.01ZM775.902 1470.47C809.95 1470.47 832.567 1451.74 837.431 1421.83H801.438C799.006 1434.47 790.007 1442.5 776.631 1442.5C758.635 1442.5 747.204 1427.91 747.204 1406.51C747.204 1385.35 758.635 1370.51 776.631 1370.51C790.007 1370.51 798.519 1378.29 801.438 1390.7H837.188C832.324 1361.03 811.166 1342.54 777.118 1342.54C737.476 1342.54 712.184 1367.84 712.184 1406.51C712.184 1445.9 736.26 1470.47 775.902 1470.47ZM917.282 1470.47C950.6 1470.47 972.245 1451.01 976.136 1426.69H942.332C939.413 1438.36 929.685 1444.44 915.823 1444.44C898.556 1444.44 887.125 1433.74 886.396 1415.99V1414.29H977.109C977.839 1410.4 978.082 1406.26 978.082 1402.61C977.595 1365.89 952.303 1342.54 914.85 1342.54C876.181 1342.54 850.646 1367.84 850.646 1406.75C850.646 1445.42 875.695 1470.47 917.282 1470.47ZM887.125 1391.91C889.071 1377.08 900.258 1368.08 915.093 1368.08C930.658 1368.08 941.116 1376.59 943.548 1391.91H887.125ZM1083.9 1469.01L1097.03 1431.8H1161.72L1174.85 1469.01H1214.01L1152.24 1298.77H1108.46L1046.2 1469.01H1083.9ZM1129.13 1337.68L1151.75 1402.37H1106.76L1129.13 1337.68ZM1243.31 1469.01H1279.79L1302.17 1393.62L1324.05 1469.01H1360.53L1401.63 1344H1366.61L1341.08 1432.28L1318.22 1344H1287.33L1263.74 1432.04L1238.69 1344H1202.45L1243.31 1469.01ZM1527.1 1440.07C1521.75 1440.07 1519.07 1438.85 1519.07 1432.28V1388.02C1519.07 1358.11 1498.89 1342.54 1463.87 1342.54C1430.79 1342.54 1408.42 1358.6 1405.99 1382.92H1439.06C1440.52 1373.67 1449.52 1367.59 1462.9 1367.59C1477.24 1367.59 1485.27 1374.89 1485.27 1386.08V1392.16H1460.46C1423.01 1392.16 1403.07 1407.24 1403.07 1433.74C1403.07 1457.58 1422.52 1470.47 1449.52 1470.47C1468.98 1470.47 1481.62 1462.44 1490.38 1448.58C1490.13 1460.5 1495.73 1469.01 1513.48 1469.01H1530.99V1440.07H1527.1ZM1485.27 1417.45C1485.03 1434.47 1474.08 1445.66 1456.09 1445.66C1444.66 1445.66 1437.6 1440.07 1437.6 1431.31C1437.6 1420.85 1445.87 1415.02 1460.22 1415.02H1485.27V1417.45ZM1614.54 1344C1595.09 1344 1585.36 1351.54 1578.55 1362.73L1575.39 1344H1544.26V1469.01H1578.55V1407.72C1578.55 1388.75 1586.33 1375.13 1606.76 1375.13H1620.38V1344H1614.54ZM1722.37 1359.57C1714.34 1349.35 1701.94 1342.54 1684.67 1342.54C1651.36 1342.54 1626.79 1367.59 1626.79 1406.26C1626.79 1445.9 1651.36 1470.47 1684.92 1470.47C1702.91 1470.47 1715.07 1462.44 1723.34 1451.74L1726.75 1469.01H1756.66V1298.77H1722.37V1359.57ZM1692.46 1442.5C1673.73 1442.5 1661.81 1427.91 1661.81 1406.51C1661.81 1385.1 1673.73 1370.51 1692.46 1370.51C1711.18 1370.51 1722.86 1385.35 1722.86 1406.75C1722.86 1427.91 1711.18 1442.5 1692.46 1442.5Z" fill="#292F36"/>
<path d="M131.644 1778.81H220.654V1757.85H167.837L195.025 1735.69C210.264 1723.39 219.961 1712.48 219.961 1694.65C219.961 1671.96 204.549 1656.55 176.149 1656.55C148.442 1656.55 131.298 1674.21 131.298 1697.07V1700.53H156.408V1698.63C156.408 1685.47 164.374 1677.5 175.976 1677.5C187.059 1677.5 194.852 1683.74 194.852 1695.69C194.852 1705.56 188.271 1712.83 177.708 1721.49L131.644 1759.59V1778.81ZM231.308 1720.97C231.308 1757.85 251.915 1779.85 281.181 1779.85C310.62 1779.85 331.227 1757.85 331.227 1720.97V1715.43C331.227 1679.23 310.62 1656.55 281.181 1656.55C251.915 1656.55 231.308 1679.23 231.308 1715.43V1720.97ZM306.291 1720.1C306.291 1745.21 296.074 1758.72 281.181 1758.72C266.462 1758.72 256.245 1745.21 256.245 1720.1V1716.29C256.245 1691.36 266.462 1677.68 281.181 1677.68C296.074 1677.68 306.291 1691.36 306.291 1716.29V1720.1ZM340.836 1778.81H429.845V1757.85H377.028L404.216 1735.69C419.455 1723.39 429.153 1712.48 429.153 1694.65C429.153 1671.96 413.74 1656.55 385.34 1656.55C357.633 1656.55 340.489 1674.21 340.489 1697.07V1700.53H365.599V1698.63C365.599 1685.47 373.565 1677.5 385.167 1677.5C396.25 1677.5 404.043 1683.74 404.043 1695.69C404.043 1705.56 397.462 1712.83 386.899 1721.49L340.836 1759.59V1778.81ZM506.997 1715.77C518.946 1712.66 528.124 1704 528.124 1689.28C528.124 1669.36 511.846 1656.55 484.485 1656.55C457.99 1656.55 439.633 1671.96 439.287 1694.65H463.704C464.051 1683.39 472.363 1676.12 484.138 1676.12C494.529 1676.12 502.841 1681.31 502.841 1691.18C502.841 1700.71 496.087 1707.46 482.753 1707.46H472.19V1727.38H484.138C498.165 1727.38 505.265 1733.44 505.265 1742.96C505.265 1753.87 496.433 1760.28 485.177 1760.28C472.016 1760.28 462.319 1753.01 461.972 1739.32H437.209C437.209 1765.3 455.392 1779.85 483.965 1779.85C512.538 1779.85 530.548 1765.47 530.548 1744.52C530.548 1726.86 519.985 1718.37 506.997 1715.77Z" fill="#FFD100"/>
<path d="M1229.58 1704.54H1173.47C1175.94 1693.14 1186.44 1685.55 1201.19 1685.55C1215.93 1685.55 1225.33 1692.26 1229.58 1704.54M1265.14 1729.56V1725.75C1265.14 1681.05 1238.99 1653.55 1200.78 1653.55C1184.47 1653.55 1168.6 1660.27 1156.51 1672.33C1144.67 1684.17 1138.2 1699.6 1138.2 1716.35C1138.2 1733.09 1144.23 1748.53 1155.85 1760.84C1168.16 1773.8 1182.91 1780.05 1201.22 1780.05C1228.05 1780.05 1247.92 1767.3 1259.54 1742.28H1220.65C1215.27 1746.97 1209.46 1749 1202.31 1749C1186.88 1749 1177.72 1742.28 1174.6 1729.56H1265.1H1265.14Z" fill="#292F36"/>
<path d="M1363.19 1704.54H1307.08C1309.55 1693.14 1320.05 1685.55 1334.79 1685.55C1349.54 1685.55 1358.91 1692.26 1363.19 1704.54M1398.75 1729.56V1725.75C1398.75 1681.05 1372.6 1653.55 1334.39 1653.55C1318.08 1653.55 1302.21 1660.27 1290.12 1672.33C1278.28 1684.17 1271.81 1699.6 1271.81 1716.35C1271.81 1733.09 1277.84 1748.53 1289.46 1760.84C1301.77 1773.8 1316.52 1780.05 1334.83 1780.05C1361.66 1780.05 1381.53 1767.3 1393.15 1742.28H1354.26C1348.88 1746.97 1343.07 1749 1335.95 1749C1320.52 1749 1311.36 1742.28 1308.24 1729.56H1398.75V1729.56Z" fill="#292F36"/>
<path d="M1088.17 1683.97V1777.16H1122.81V1683.97H1136.9V1657.17H1122.81V1654.26C1122.81 1643.3 1125.28 1639.74 1136 1639.74H1136.9V1615.59C1134.9 1615.59 1133.09 1615.37 1131.31 1615.37C1101.79 1615.37 1087.95 1626.99 1087.95 1652.7C1087.95 1654.04 1088.17 1655.61 1088.17 1657.17H1075.2V1684H1088.17V1683.97Z" fill="#292F36"/>
<path d="M1412.2 1683.98V1777.17H1446.85V1683.98H1460.94V1657.17H1446.85V1654.27C1446.85 1643.3 1449.31 1639.74 1460.03 1639.74H1460.9V1615.59C1458.9 1615.59 1457.09 1615.37 1455.31 1615.37C1425.82 1615.37 1411.95 1626.99 1411.95 1652.7C1411.95 1654.05 1412.17 1655.61 1412.17 1657.17H1399.2V1684.01H1412.17L1412.2 1683.98Z" fill="#292F36"/>
<path d="M1552.54 1717.28C1552.54 1733.59 1539.79 1746.77 1524.17 1746.77C1508.55 1746.77 1495.77 1733.59 1495.77 1717.28C1495.77 1700.97 1508.52 1687.57 1524.17 1687.57C1539.82 1687.57 1552.54 1700.75 1552.54 1717.28ZM1587.62 1716.41C1587.62 1700.1 1580.68 1683.54 1567.97 1671.48C1555.91 1660.08 1540.95 1654.05 1523.48 1654.05C1507.17 1654.05 1491.3 1660.77 1479.21 1672.82C1467.37 1684.66 1460.91 1700.1 1460.91 1716.84C1460.91 1733.59 1466.94 1749.02 1478.56 1761.11C1490.87 1774.08 1505.61 1780.32 1523.92 1780.32C1542.23 1780.32 1557.22 1773.86 1569.53 1761.55C1581.59 1749.49 1587.62 1734.49 1587.62 1716.41" fill="#292F36"/>
<path d="M1641.75 1696.92C1624.76 1695.89 1611.07 1682.24 1610.14 1665.21H1684.49V1664.4C1684.49 1635.19 1665.84 1615.72 1640.03 1615.72C1612.79 1615.72 1594.3 1635.69 1594.3 1661.62C1594.3 1686.11 1613.45 1707.7 1639.57 1707.7C1658.56 1707.7 1673.65 1697.17 1681.74 1677.67H1674.24C1668.84 1689.08 1657.25 1696.95 1643.78 1696.95C1643.1 1696.95 1642.47 1696.95 1641.78 1696.89" fill="#FFD100"/>
<path d="M1736.19 1696.92C1753.19 1695.89 1766.87 1682.24 1767.81 1665.21H1693.45V1664.4C1693.45 1635.19 1712.1 1615.72 1737.91 1615.72C1765.15 1615.72 1783.65 1635.69 1783.65 1661.62C1783.65 1686.11 1764.5 1707.7 1738.38 1707.7C1719.41 1707.7 1704.33 1697.17 1696.2 1677.67H1703.73C1709.14 1689.08 1720.73 1696.95 1734.19 1696.95C1734.88 1696.95 1735.5 1696.95 1736.19 1696.89" fill="#FFD100"/>
<path d="M128.055 377.608L428.855 678.408L729.655 377.608H128.055Z" fill="#FFDF4C"/>
<path d="M128.055 377.611H428.855V76.811L128.055 377.611Z" fill="url(#paint0_linear_90_13391)"/>
<path d="M729.652 377.608H428.852V678.408L729.652 377.608Z" fill="#F4CA08"/>
<path d="M642.765 892.316L428.863 678.414L214.961 892.316H642.765Z" fill="#FFD100"/>
<defs>
<linearGradient id="paint0_linear_90_13391" x1="128.055" y1="227.211" x2="428.855" y2="227.211" gradientUnits="userSpaceOnUse">
<stop offset="0.4062" stop-color="#FFD100"/>
<stop offset="1" stop-color="#FFD100" stop-opacity="0"/>
</linearGradient>
</defs>
</svg>
