<?xml version="1.0" encoding="utf-8"?>
<!-- Generator: Adobe Illustrator 25.0.1, SVG Export Plug-In . SVG Version: 6.00 Build 0)  -->
<svg version="1.1" id="Layer_1" xmlns="http://www.w3.org/2000/svg" xmlns:xlink="http://www.w3.org/1999/xlink" x="0px" y="0px"
	 viewBox="0 0 441.1 338.45" style="enable-background:new 0 0 441.1 338.45;" xml:space="preserve">
<style type="text/css">
	.st0{fill:#002A3A;}
</style>
<g>
	<path class="st0" d="M158.37,178.76c0.13,0.17,0.28,0.34,0.43,0.49c8.49,8.48,18.67,12.76,30.17,12.76c0.3,0,0.61,0,0.91,0
		c18.9,0,43.57-8.35,66.22-22.44c59.78-37.96,76.32-101.85,76.98-104.54c0.42-1.64,0.02-3.38-1.05-4.68L284.03,1.94
		c-1.28-1.56-3.33-2.25-5.3-1.82c-1.97,0.44-3.52,1.95-4,3.91c-0.16,0.62-16.13,62.43-72.32,98.11
		c-28.85,17.94-61.24,25.56-75.36,17.72c-1.27-0.71-2.37-1.54-3.3-2.49l-1.67-2.13c-1.47-2.38-2.2-5.32-2.2-8.89
		c0-27.11,34.22-57.17,65.94-69.46c15.65-6.07,28.8-5.82,33.71-2.46c1.49,1.02,1.69,1.99,1.69,2.8c0,33.59-50.63,58.47-64.01,58.47
		c-2.37,0-3.35-0.45-3.51-0.36c-0.59-4.06,11.43-18.71,27.23-26.58c2.63-1.32,3.7-4.53,2.4-7.16c-1.32-2.63-4.5-3.71-7.16-2.4
		c-15.67,7.81-35.74,26.3-32.84,38.67c0.75,3.17,3.54,8.49,13.88,8.49c16.89,0,64.57-22.97,73.29-58l5.95,7.68
		c2.31-3.06,4.48-6.09,6.45-9.09l-13.38-17.28c-0.02-0.01-0.03-0.01-0.04-0.03c-1.02-1.51-2.28-2.9-3.92-4.03
		c-8.84-6.04-25.96-5.52-43.6,1.32c-30.21,11.71-72.75,44.1-72.75,79.41c0,7.41,2.25,13.55,6.58,18.14L158.37,178.76z
		 M208.09,111.18c46.65-29.62,66.97-75.03,73.96-94.84l39.96,48.63c-1.35,4.45-4.73,14.41-10.95,26.78l-16.32-20.4
		c-1.85-2.29-5.2-2.67-7.5-0.83c-2.3,1.84-2.68,5.2-0.83,7.5l19.12,23.9c-3.67,6.34-8.04,13.02-13.19,19.76l-10.06-12.58
		c-1.85-2.28-5.2-2.67-7.5-0.83c-2.3,1.85-2.67,5.2-0.83,7.5l11.49,14.37c-4.78,5.52-10.12,10.96-16.07,16.17l-17.29-21.61
		c-1.84-2.3-5.19-2.68-7.5-0.83c-2.29,1.84-2.67,5.2-0.83,7.5l17.37,21.69c-3.41,2.59-6.93,5.12-10.68,7.5
		c-2.04,1.27-4.13,2.46-6.21,3.63l-9.93-12.42c-1.85-2.28-5.2-2.67-7.5-0.83c-2.29,1.84-2.67,5.2-0.83,7.5l8.65,10.81
		c-6.92,3.31-13.84,5.94-20.51,7.96l-20.67-25.84c-1.84-2.3-5.2-2.68-7.5-0.84c-2.29,1.85-2.67,5.2-0.83,7.51l17.62,22.02
		c-4.57,0.84-8.91,1.32-12.89,1.32c-0.2,0-0.39,0-0.58,0h-0.16c-8.55,0-16.13-3.18-22.51-9.44l-30.31-38.63
		C155.45,135.17,182.49,127.11,208.09,111.18z"/>
	<polygon class="st0" points="111.38,337.81 131.67,337.81 131.67,330.72 119.46,330.72 119.46,323.58 131.15,323.58 131.15,316.49 
		119.46,316.49 119.46,309.44 131.67,309.44 131.67,302.35 111.38,302.35 	"/>
	<path class="st0" d="M88.86,302.35H78.59v35.46h10.27c4.96,0,9.18-1.69,12.66-5.05c3.48-3.37,5.22-7.6,5.22-12.7
		c0-5.07-1.75-9.29-5.25-12.65C98,304.03,93.79,302.35,88.86,302.35z M95.16,327.6c-1.88,1.99-4.29,2.98-7.24,2.98h-1.24v-21.02
		h1.24c2.98,0,5.41,1,7.29,3.01c1.88,2.01,2.81,4.52,2.81,7.53C97.99,323.11,97.04,325.61,95.16,327.6z"/>
	<path class="st0" d="M54.35,302.35l-14.31,35.46h8.68l2.62-7.09h13.5l2.62,7.09h8.68l-14.31-35.46H54.35z M54.09,323.62l3.95-10.31
		h0.09l3.96,10.31H54.09z"/>
	<polygon class="st0" points="27.71,302.35 19.84,322.81 11.98,302.35 3.38,302.35 0.2,337.81 8.28,337.81 9.96,316.79 
		10.17,316.79 17.43,337.59 22.25,337.59 29.51,316.79 29.73,316.79 31.4,337.81 39.48,337.81 36.3,302.35 	"/>
	<path class="st0" d="M411.06,319.43c1.3-1.76,1.95-3.95,1.95-6.55c0-3.39-1.08-5.98-3.23-7.8c-2.15-1.81-4.93-2.72-8.33-2.72
		h-12.68v35.46h8.08V323.8l10.83,14.01h10.27l-12.2-14.66C407.98,322.44,409.75,321.2,411.06,319.43z M404.07,315.63
		c-0.29,0.6-0.63,1.06-1.03,1.37c-0.4,0.31-0.94,0.56-1.59,0.73c-0.66,0.17-1.25,0.27-1.77,0.3c-0.51,0.03-1.15,0.05-1.89,0.05
		h-0.94v-9.28h0.94c0.74,0,1.38,0.01,1.89,0.04c0.52,0.03,1.11,0.13,1.77,0.3c0.65,0.17,1.18,0.42,1.59,0.73
		c0.4,0.31,0.74,0.78,1.03,1.38s0.43,1.33,0.43,2.19S404.36,315.03,404.07,315.63z"/>
	<polygon class="st0" points="265.6,337.81 285.88,337.81 285.88,330.72 273.68,330.72 273.68,323.58 285.37,323.58 285.37,316.49 
		273.68,316.49 273.68,309.44 285.88,309.44 285.88,302.35 265.6,302.35 	"/>
	<polygon class="st0" points="440.9,309.44 440.9,302.35 420.62,302.35 420.62,337.81 440.9,337.81 440.9,330.72 428.7,330.72 
		428.7,323.58 440.39,323.58 440.39,316.49 428.7,316.49 428.7,309.44 	"/>
	<path class="st0" d="M374.89,322.85c0,2.86-0.46,4.86-1.35,5.98c-0.91,1.12-2.37,1.68-4.4,1.68c-2.04,0-3.51-0.56-4.41-1.68
		c-0.9-1.12-1.35-3.11-1.35-5.98v-20.5h-8.08v22.86c0,4.36,1.17,7.66,3.52,9.88c2.35,2.24,5.79,3.36,10.32,3.36
		c4.52,0,7.96-1.12,10.31-3.36c2.35-2.23,3.53-5.52,3.53-9.88v-22.86h-8.08V322.85z"/>
	<path class="st0" d="M302.39,302.35l-14.31,35.46h8.68l2.62-7.09h13.5l2.62,7.09h8.68l-14.31-35.46H302.39z M302.13,323.62
		l3.95-10.31h0.09l3.96,10.31H302.13z"/>
	<path class="st0" d="M342.57,317.35c-1.32-0.57-2.29-1.01-2.93-1.29c-0.63-0.29-1.36-0.67-2.19-1.14
		c-0.83-0.47-1.42-0.91-1.77-1.33c-0.34-0.42-0.51-0.87-0.51-1.35c0-0.98,0.36-1.75,1.1-2.33c0.73-0.57,1.77-0.85,3.12-0.85
		c1.08,0,2.26,0.22,3.52,0.68c1.26,0.46,2.12,0.83,2.58,1.09c0.46,0.27,0.82,0.49,1.08,0.67l3.26-6.45l-1.28-0.86
		c-0.89-0.54-2.25-1.09-4.09-1.65c-1.84-0.55-3.71-0.83-5.63-0.83c-3.01,0-5.69,1.01-8.03,3.03c-2.35,2.02-3.53,4.62-3.53,7.8
		c0,1.84,0.59,3.54,1.76,5.13s2.84,2.92,4.99,3.98c0.51,0.26,1.31,0.64,2.38,1.14s1.85,0.87,2.33,1.12
		c0.47,0.25,1.01,0.57,1.63,0.99c0.61,0.42,1.04,0.83,1.29,1.24s0.36,0.87,0.36,1.35c0,2.32-1.71,3.48-5.12,3.48
		c-1.17,0-2.53-0.37-4.06-1.12c-1.54-0.74-2.6-1.34-3.2-1.78c-0.6-0.44-1.07-0.81-1.42-1.09l-4.04,6.79l0.56,0.48
		c0.37,0.31,0.96,0.7,1.76,1.16c0.8,0.46,1.71,0.92,2.71,1.39c1,0.48,2.25,0.86,3.74,1.18c1.49,0.31,3.01,0.47,4.56,0.47
		c1.81,0,3.48-0.21,5.03-0.62c1.55-0.42,2.96-1.05,4.24-1.91c1.28-0.86,2.27-2.05,3.01-3.57c0.73-1.51,1.09-3.29,1.09-5.33
		c0-2.12-0.81-4.02-2.43-5.69C346.82,319.65,344.86,318.32,342.57,317.35z"/>
	<polygon class="st0" points="249.48,302.35 241.62,322.81 233.75,302.35 225.16,302.35 221.98,337.81 230.06,337.81 231.73,316.79 
		231.95,316.79 239.21,337.59 244.02,337.59 251.29,316.79 251.5,316.79 253.18,337.81 261.26,337.81 258.08,302.35 	"/>
	<path class="st0" d="M189.16,301.71c-4.93,0-9.14,1.77-12.64,5.33c-3.49,3.55-5.25,7.89-5.25,13.02c0,5.25,1.69,9.62,5.05,13.13
		c3.37,3.51,7.64,5.26,12.83,5.26c5.07,0,9.31-1.77,12.72-5.31c3.41-3.53,5.12-7.9,5.12-13.09c0-5.15-1.73-9.51-5.2-13.04
		C198.33,303.48,194.11,301.71,189.16,301.71z M195.97,327.54c-1.53,2.06-3.8,3.1-6.81,3.1c-2.09,0-3.86-0.53-5.29-1.59
		c-1.44-1.06-2.43-2.36-3.01-3.89c-0.57-1.54-0.86-3.23-0.86-5.1c0-2.89,0.8-5.38,2.39-7.45c1.59-2.08,3.84-3.11,6.77-3.11
		c2.95,0,5.2,1.03,6.77,3.11c1.56,2.07,2.34,4.56,2.34,7.45C198.27,322.98,197.5,325.47,195.97,327.54z"/>
	<polygon class="st0" points="145.32,309.44 153.74,309.44 153.74,337.81 161.82,337.81 161.82,309.44 170.25,309.44 170.25,302.35 
		145.32,302.35 	"/>
	<path class="st0" d="M277.88,250.78v35.46h10.27c4.96,0,9.18-1.68,12.66-5.05c3.48-3.37,5.22-7.6,5.22-12.7
		c0-5.07-1.74-9.29-5.25-12.65c-3.49-3.37-7.7-5.05-12.63-5.05H277.88z M297.31,268.53c-0.03,3.01-0.98,5.51-2.85,7.5
		c-1.88,1.99-4.3,2.98-7.24,2.98h-1.25V258h1.25c2.98,0,5.41,1,7.28,3.01C296.37,263.01,297.31,265.52,297.31,268.53z"/>
	<path class="st0" d="M370.33,272.22l10.83,14.01h10.27l-12.21-14.66c2.24-0.72,4.01-1.95,5.31-3.71c1.3-1.77,1.95-3.95,1.95-6.56
		c0-3.38-1.07-5.98-3.22-7.8c-2.15-1.82-4.93-2.73-8.34-2.73h-12.68v35.46h8.08V272.22z M370.33,257.22h0.95
		c0.74,0,1.37,0.01,1.89,0.04c0.51,0.03,1.11,0.13,1.76,0.3c0.66,0.17,1.18,0.42,1.59,0.73c0.4,0.31,0.74,0.78,1.03,1.38
		c0.29,0.6,0.43,1.33,0.43,2.19s-0.14,1.59-0.43,2.19s-0.63,1.06-1.03,1.37c-0.41,0.31-0.94,0.56-1.59,0.73
		c-0.66,0.18-1.25,0.27-1.76,0.3c-0.52,0.03-1.15,0.05-1.89,0.05h-0.95V257.22z"/>
	<path class="st0" d="M234.91,286.23h8.68l-14.31-35.46h-7.48l-14.31,35.46h8.68l2.62-7.09h13.49L234.91,286.23z M221.54,272.05
		l3.96-10.32h0.08l3.96,10.32H221.54z"/>
	<path class="st0" d="M263.01,271.58c2.24-0.72,4.01-1.95,5.31-3.71c1.3-1.77,1.95-3.95,1.95-6.56c0-3.38-1.07-5.98-3.22-7.8
		c-2.15-1.82-4.93-2.73-8.34-2.73h-12.68v35.46h8.08v-14.01l10.83,14.01h10.27L263.01,271.58z M261.34,264.06
		c-0.29,0.6-0.63,1.06-1.03,1.37c-0.41,0.31-0.94,0.56-1.59,0.73c-0.66,0.18-1.25,0.27-1.76,0.3c-0.52,0.03-1.15,0.05-1.89,0.05
		h-0.95v-9.28h0.95c0.74,0,1.37,0.01,1.89,0.04c0.51,0.03,1.11,0.13,1.76,0.3c0.66,0.17,1.18,0.42,1.59,0.73
		c0.4,0.31,0.74,0.78,1.03,1.38c0.29,0.6,0.43,1.33,0.43,2.19S261.62,263.46,261.34,264.06z"/>
	<polygon class="st0" points="149.98,264.23 150.07,264.23 164.17,286.23 172.25,286.23 172.25,250.78 164.17,250.78 164.17,272.78 
		164.08,272.78 149.98,250.78 141.9,250.78 141.9,286.23 149.98,286.23 	"/>
	<path class="st0" d="M352.41,255.44c-3.47-3.54-7.68-5.31-12.63-5.31c-4.93,0-9.14,1.77-12.64,5.33c-3.5,3.55-5.24,7.89-5.24,13.02
		c0,5.25,1.68,9.62,5.05,13.13c3.37,3.51,7.64,5.26,12.83,5.26c5.07,0,9.31-1.77,12.72-5.3c3.41-3.54,5.12-7.9,5.12-13.09
		C357.61,263.33,355.87,258.98,352.41,255.44z M346.58,275.96c-1.54,2.07-3.81,3.1-6.81,3.1c-2.1,0-3.86-0.53-5.29-1.59
		c-1.43-1.06-2.43-2.35-3.01-3.89c-0.57-1.54-0.86-3.23-0.86-5.1c0-2.89,0.79-5.37,2.39-7.45c1.59-2.07,3.84-3.11,6.77-3.11
		c2.95,0,5.2,1.04,6.76,3.11c1.56,2.08,2.34,4.56,2.34,7.45C348.88,271.41,348.11,273.9,346.58,275.96z"/>
	<path class="st0" d="M178.48,250.78v35.46h10.27c4.95,0,9.17-1.68,12.66-5.05c3.48-3.37,5.22-7.6,5.22-12.7
		c0-5.07-1.75-9.29-5.25-12.65c-3.49-3.37-7.71-5.05-12.63-5.05H178.48z M197.9,268.53c-0.03,3.01-0.98,5.51-2.86,7.5
		c-1.88,1.99-4.29,2.98-7.24,2.98h-1.24V258h1.24c2.98,0,5.41,1,7.29,3.01S197.9,265.52,197.9,268.53z"/>
	<polygon class="st0" points="88.7,286.23 96.78,286.23 96.78,257.87 105.2,257.87 105.2,250.78 80.27,250.78 80.27,257.87 
		88.7,257.87 	"/>
	<path class="st0" d="M79.71,275.45c0-2.12-0.81-4.02-2.42-5.69c-1.62-1.68-3.58-3-5.87-3.97c-1.32-0.57-2.29-1-2.92-1.29
		c-0.63-0.29-1.37-0.66-2.2-1.14c-0.83-0.47-1.42-0.91-1.76-1.33c-0.35-0.42-0.52-0.87-0.52-1.35c0-0.98,0.36-1.75,1.09-2.32
		c0.73-0.57,1.77-0.86,3.12-0.86c1.09,0,2.27,0.23,3.52,0.68c1.26,0.46,2.12,0.83,2.58,1.1c0.46,0.27,0.82,0.49,1.08,0.66l3.27-6.45
		l-1.29-0.85c-0.89-0.55-2.25-1.1-4.09-1.65c-1.83-0.56-3.71-0.84-5.63-0.84c-3.01,0-5.69,1.01-8.03,3.03
		c-2.35,2.02-3.53,4.62-3.53,7.8c0,1.84,0.59,3.54,1.76,5.13c1.18,1.59,2.84,2.92,4.99,3.98c0.52,0.26,1.31,0.64,2.38,1.14
		c1.08,0.5,1.85,0.87,2.32,1.12c0.47,0.24,1.01,0.57,1.63,0.99c0.61,0.42,1.04,0.83,1.29,1.25c0.25,0.42,0.36,0.86,0.36,1.35
		c0,2.33-1.71,3.49-5.11,3.49c-1.17,0-2.53-0.38-4.06-1.12c-1.53-0.74-2.6-1.34-3.2-1.78c-0.6-0.44-1.07-0.81-1.42-1.09l-4.04,6.79
		l0.56,0.48c0.37,0.31,0.96,0.7,1.76,1.16c0.81,0.46,1.71,0.92,2.71,1.39c1.01,0.48,2.25,0.87,3.74,1.18c1.49,0.31,3,0.47,4.55,0.47
		c1.81,0,3.48-0.21,5.03-0.62c1.54-0.42,2.96-1.05,4.23-1.92c1.28-0.86,2.28-2.05,3.01-3.56C79.35,279.26,79.71,277.48,79.71,275.45
		z"/>
	<path class="st0" d="M117.66,250.78l-14.31,35.46h8.68l2.63-7.09h13.49l2.62,7.09h8.68l-14.31-35.46H117.66z M117.41,272.05
		l3.95-10.32h0.09l3.95,10.32H117.41z"/>
</g>
</svg>
