<?xml version="1.0" encoding="utf-8"?>
<!-- Generator: Adobe Illustrator 25.0.1, SVG Export Plug-In . SVG Version: 6.00 Build 0)  -->
<svg version="1.1" id="Layer_1" xmlns="http://www.w3.org/2000/svg" xmlns:xlink="http://www.w3.org/1999/xlink" x="0px" y="0px"
	 viewBox="0 0 413.31 303" style="enable-background:new 0 0 413.31 303;" xml:space="preserve">
<style type="text/css">
	.st0{fill:#002A3A;}
</style>
<g>
	<path class="st0" d="M129.36,156.91c44.03,0,71.57-27.3,71.57-74.95V0h-38.39v82.62c0,23.5-13.1,38.62-33.19,38.62
		c-20.11,0-32.97-15.12-32.97-38.62V0H58.01v81.95C58.01,129.6,85.57,156.91,129.36,156.91z"/>
	<polygon class="st0" points="291.29,153.53 262.6,120.81 262.6,153.53 	"/>
	<polygon class="st0" points="262.6,0 262.6,32.72 291.29,0 	"/>
	<polygon class="st0" points="334.68,50.72 355.6,26.62 355.6,11.4 321.46,50.72 	"/>
	<polygon class="st0" points="254.1,92.01 307.35,153.33 352.5,153.33 305.31,98.84 355.61,98.84 355.61,60.66 299.96,60.66 
		352.5,0 307.35,0 254.1,61.31 254.1,0 215.92,0 215.92,153.51 254.1,153.51 	"/>
	<polygon class="st0" points="355.61,108.04 324.05,108.04 355.61,144.37 	"/>
	<polygon class="st0" points="27.51,266.9 19.64,287.36 11.78,266.9 3.18,266.9 0,302.36 8.08,302.36 9.75,281.34 9.97,281.34 
		17.23,302.14 22.04,302.14 29.31,281.34 29.53,281.34 31.2,302.36 39.28,302.36 36.1,266.9 	"/>
	<path class="st0" d="M54.15,266.9l-14.31,35.46h8.68l2.62-7.09h13.49l2.63,7.09h8.68L61.63,266.9H54.15z M53.89,288.17l3.96-10.31
		h0.08l3.96,10.31H53.89z"/>
	<path class="st0" d="M284.64,287.4c0,2.86-0.46,4.86-1.35,5.98c-0.91,1.12-2.37,1.68-4.41,1.68c-2.03,0-3.5-0.56-4.4-1.68
		c-0.9-1.12-1.35-3.11-1.35-5.98v-20.5h-8.08v22.86c0,4.36,1.18,7.65,3.53,9.88c2.35,2.23,5.78,3.35,10.31,3.35
		c4.53,0,7.97-1.12,10.32-3.35c2.35-2.23,3.52-5.53,3.52-9.88V266.9h-8.08V287.4z"/>
	<polygon class="st0" points="366.94,288.91 366.86,288.91 352.76,266.9 344.67,266.9 344.67,302.36 352.76,302.36 352.76,280.35 
		352.85,280.35 366.94,302.36 375.02,302.36 375.02,266.9 366.94,266.9 	"/>
	<path class="st0" d="M320.81,283.98c1.3-1.76,1.95-3.95,1.95-6.55c0-3.39-1.07-5.99-3.22-7.81c-2.15-1.81-4.93-2.72-8.34-2.72
		h-12.68v35.46h8.08v-14.01l10.83,14.01h10.27l-12.21-14.66C317.73,286.99,319.5,285.75,320.81,283.98z M313.82,280.18
		c-0.29,0.6-0.63,1.06-1.03,1.37c-0.41,0.32-0.94,0.56-1.59,0.73c-0.66,0.17-1.25,0.27-1.76,0.3c-0.52,0.03-1.15,0.04-1.89,0.04
		h-0.95v-9.28h0.95c0.74,0,1.37,0.01,1.89,0.04c0.51,0.03,1.11,0.13,1.76,0.3c0.66,0.17,1.18,0.42,1.59,0.73
		c0.4,0.32,0.74,0.78,1.03,1.38s0.43,1.33,0.43,2.19S314.11,279.58,313.82,280.18z"/>
	<path class="st0" d="M396.94,282.5v6.23h8.16c0,2.07-0.77,3.72-2.3,4.97c-1.54,1.24-3.33,1.87-5.4,1.87c-2.49,0-4.62-1.07-6.38-3.2
		c-1.76-2.14-2.64-4.71-2.64-7.72c0-3.06,0.88-5.68,2.64-7.84c1.76-2.17,3.89-3.25,6.38-3.25c3.38,0,6.02,1.52,7.91,4.56l5.29-5.8
		c-3.36-4.04-7.91-6.06-13.67-6.06c-4.93,0-9.04,1.78-12.33,5.33c-3.29,3.55-4.95,7.9-4.95,13.06c0,5.07,1.69,9.4,5.05,12.98
		c3.37,3.58,7.44,5.37,12.23,5.37c3.81,0,7.26-1.08,10.36-3.24c3.09-2.16,5.1-5.35,6.02-9.56v-7.69H396.94z"/>
	<path class="st0" d="M134.13,287.4c0,2.86-0.45,4.86-1.35,5.98c-0.91,1.12-2.38,1.68-4.41,1.68c-2.03,0-3.5-0.56-4.4-1.68
		c-0.9-1.12-1.35-3.11-1.35-5.98v-20.5h-8.08v22.86c0,4.36,1.17,7.65,3.52,9.88c2.34,2.23,5.79,3.35,10.31,3.35
		c4.53,0,7.97-1.12,10.31-3.35c2.35-2.23,3.53-5.53,3.53-9.88V266.9h-8.08V287.4z"/>
	<path class="st0" d="M215.3,277.65c0.9-1.03,2.12-1.86,3.67-2.49c1.55-0.63,3.29-0.95,5.24-0.95c1.24,0,2.45,0.2,3.65,0.6
		c1.21,0.4,2.01,0.73,2.41,0.97c0.4,0.24,0.7,0.45,0.91,0.62l3.44-6.88l-1.21-0.81c-0.81-0.55-2.17-1.09-4.1-1.64
		s-4.05-0.82-6.34-0.82c-2.46,0-4.87,0.49-7.22,1.46c-2.35,0.97-4.41,2.28-6.17,3.91c-1.76,1.63-3.18,3.59-4.23,5.89
		c-1.06,2.29-1.59,4.69-1.59,7.17c0,3.29,0.9,6.36,2.7,9.2c1.81,2.83,4.19,5.07,7.14,6.68c2.95,1.62,6.08,2.43,9.37,2.43
		c1.43,0,2.83-0.11,4.17-0.34c1.35-0.23,2.43-0.48,3.27-0.78c0.83-0.29,1.61-0.62,2.34-1.01c0.73-0.39,1.2-0.65,1.39-0.79
		c0.2-0.14,0.36-0.26,0.48-0.34l-3.44-6.88l-0.82,0.56c-0.55,0.35-1.4,0.7-2.56,1.08c-1.16,0.38-2.35,0.56-3.59,0.56
		c-3.75,0-6.64-1.07-8.66-3.2c-2.02-2.13-3.03-4.54-3.03-7.24c0-1.23,0.24-2.44,0.71-3.63C213.71,279.79,214.39,278.68,215.3,277.65
		z"/>
	<polygon class="st0" points="156.09,273.99 168.52,273.99 168.52,266.9 148.02,266.9 148.02,302.36 156.09,302.36 156.09,288.13 
		167.57,288.13 167.57,281.04 156.09,281.04 	"/>
	<path class="st0" d="M182.48,266.9l-14.31,35.46h8.68l2.62-7.09h13.49l2.63,7.09h8.68l-14.31-35.46H182.48z M182.23,288.17
		l3.95-10.31h0.09l3.95,10.31H182.23z"/>
	<polygon class="st0" points="236.55,273.99 244.97,273.99 244.97,302.36 253.05,302.36 253.05,273.99 261.48,273.99 261.48,266.9 
		236.55,266.9 	"/>
	<polygon class="st0" points="100.65,288.91 100.57,288.91 86.47,266.9 78.39,266.9 78.39,302.36 86.47,302.36 86.47,280.35 
		86.56,280.35 100.65,302.36 108.73,302.36 108.73,266.9 100.65,266.9 	"/>
	<rect x="330.36" y="266.9" class="st0" width="8.08" height="35.46"/>
	<path class="st0" d="M308.99,251.43c4.53,0,7.97-1.12,10.31-3.35c2.35-2.23,3.52-5.53,3.52-9.88v-22.86h-8.08v20.5
		c0,2.86-0.45,4.85-1.35,5.98c-0.91,1.11-2.38,1.67-4.41,1.67c-2.03,0-3.5-0.56-4.4-1.67c-0.91-1.12-1.35-3.11-1.35-5.98v-20.5
		h-8.08v22.86c0,4.36,1.18,7.65,3.53,9.88C301.02,250.32,304.46,251.43,308.99,251.43z"/>
	<polygon class="st0" points="336.71,235.75 349.77,250.79 360.9,250.79 344.4,232.14 358.67,215.33 348.87,215.33 336.71,229.82 
		336.71,215.33 328.63,215.33 328.63,250.79 336.71,250.79 	"/>
	<path class="st0" d="M182.42,250.79h8.68l2.62-7.09h13.49l2.63,7.09h8.68l-14.31-35.46h-7.48L182.42,250.79z M200.51,226.29
		l3.95,10.31h-7.99l3.95-10.31H200.51z"/>
	<polygon class="st0" points="180.23,222.42 180.23,215.33 159.94,215.33 159.94,250.79 180.23,250.79 180.23,243.7 168.02,243.7 
		168.02,236.56 179.71,236.56 179.71,229.47 168.02,229.47 168.02,222.42 	"/>
	<path class="st0" d="M245.21,225.86c0-3.38-1.08-5.98-3.23-7.8s-4.92-2.73-8.33-2.73h-12.68v35.46h8.08v-14.01l10.83,14.01h10.27
		l-12.2-14.65c2.24-0.72,4.01-1.95,5.31-3.72C244.56,230.65,245.21,228.47,245.21,225.86z M236.27,228.61
		c-0.29,0.6-0.63,1.06-1.03,1.38c-0.4,0.31-0.94,0.56-1.59,0.73c-0.66,0.17-1.25,0.27-1.76,0.3c-0.52,0.03-1.15,0.04-1.89,0.04
		h-0.94v-9.28h0.94c0.75,0,1.38,0.01,1.89,0.05c0.51,0.03,1.1,0.13,1.76,0.3c0.65,0.17,1.18,0.42,1.59,0.73
		c0.4,0.31,0.74,0.77,1.03,1.37s0.43,1.34,0.43,2.19C236.7,227.28,236.55,228.01,236.27,228.61z"/>
	<path class="st0" d="M273.81,248.9c1.28-0.86,2.28-2.05,3.01-3.57c0.73-1.52,1.09-3.29,1.09-5.33c0-2.12-0.81-4.02-2.43-5.69
		c-1.61-1.68-3.57-3-5.86-3.98c-1.32-0.57-2.29-1-2.92-1.29c-0.63-0.29-1.36-0.66-2.19-1.14c-0.83-0.48-1.42-0.92-1.76-1.33
		c-0.35-0.41-0.52-0.87-0.52-1.35c0-0.97,0.36-1.75,1.09-2.32c0.73-0.57,1.77-0.86,3.11-0.86c1.09,0,2.27,0.23,3.53,0.69
		c1.26,0.46,2.12,0.82,2.58,1.09c0.46,0.27,0.82,0.49,1.07,0.67l3.27-6.45l-1.29-0.86c-0.89-0.54-2.25-1.09-4.09-1.65
		c-1.83-0.56-3.71-0.83-5.63-0.83c-3,0-5.68,1.01-8.03,3.03c-2.35,2.02-3.52,4.62-3.52,7.8c0,1.84,0.59,3.55,1.76,5.14
		c1.17,1.59,2.84,2.92,4.99,3.97c0.52,0.26,1.31,0.64,2.38,1.14c1.08,0.5,1.85,0.87,2.32,1.11c0.47,0.25,1.02,0.57,1.63,0.99
		c0.62,0.42,1.05,0.83,1.29,1.25c0.24,0.42,0.36,0.87,0.36,1.35c0,2.32-1.71,3.48-5.12,3.48c-1.17,0-2.53-0.37-4.06-1.11
		c-1.53-0.75-2.6-1.34-3.2-1.78c-0.6-0.45-1.07-0.81-1.42-1.1l-4.04,6.79l0.56,0.47c0.37,0.32,0.96,0.7,1.76,1.16
		c0.81,0.46,1.71,0.92,2.71,1.4c1,0.47,2.25,0.87,3.74,1.18c1.49,0.31,3.01,0.47,4.56,0.47c1.81,0,3.48-0.21,5.03-0.62
		C271.12,250.39,272.53,249.76,273.81,248.9z"/>
	<path class="st0" d="M99.04,214.69c-4.07,0-7.49,1.6-10.27,4.81c-2.77,3.21-4.17,7.74-4.17,13.58c0,3.18,0.39,5.98,1.16,8.38
		c0.77,2.41,1.84,4.32,3.22,5.73c1.37,1.42,2.9,2.48,4.58,3.18c1.67,0.7,3.5,1.05,5.48,1.05c1.98,0,3.8-0.35,5.48-1.05
		c1.68-0.7,3.2-1.76,4.56-3.18c1.36-1.41,2.42-3.33,3.2-5.73c0.77-2.41,1.16-5.2,1.16-8.38c0-5.84-1.38-10.37-4.14-13.58
		C106.53,216.29,103.11,214.69,99.04,214.69z M103.64,241.53c-1.08,1.88-2.62,2.81-4.6,2.81c-2.01,0-3.55-0.94-4.64-2.81
		c-1.09-1.88-1.63-4.69-1.63-8.45c0-3.55,0.56-6.32,1.67-8.31c1.12-1.99,2.65-2.99,4.6-2.99c1.95,0,3.48,0.99,4.58,2.97
		c1.11,1.98,1.65,4.76,1.65,8.34C105.27,236.84,104.73,239.65,103.64,241.53z"/>
	<polygon class="st0" points="147.86,215.33 140.47,226.68 133.08,215.33 123.37,215.33 136.43,234.89 136.43,250.79 144.51,250.79 
		144.51,234.89 157.58,215.33 	"/>
	<path class="st0" d="M76.44,231.66c2.09-1.63,3.14-3.85,3.14-6.66c0-3.01-1.09-5.48-3.28-7.42c-2.2-1.93-4.98-2.9-8.36-2.9
		c-1.86,0-3.54,0.28-5.03,0.83c-1.49,0.56-2.62,1.18-3.4,1.87c-0.78,0.69-1.45,1.48-2.02,2.37c-0.58,0.89-0.92,1.51-1.03,1.87
		c-0.12,0.36-0.21,0.64-0.26,0.84l6.36,3.1l0.13-0.48c0.05-0.28,0.21-0.64,0.45-1.07c0.24-0.43,0.54-0.86,0.9-1.29
		c0.35-0.43,0.87-0.79,1.55-1.09s1.42-0.45,2.25-0.45c1.17,0,2.2,0.37,3.07,1.12s1.31,1.68,1.31,2.79c0,1.26-0.43,2.32-1.29,3.18
		s-1.85,1.29-2.97,1.29h-1.76v5.29l1.54-0.26c1.44,0,2.65,0.48,3.64,1.46c0.98,0.98,1.48,2.22,1.48,3.74c0,1.46-0.47,2.6-1.42,3.44
		c-0.94,0.83-2.17,1.25-3.7,1.25c-1,0-1.88-0.2-2.64-0.58c-0.76-0.39-1.33-0.82-1.7-1.29c-0.37-0.48-0.69-1.03-0.95-1.66
		c-0.26-0.63-0.41-1.07-0.45-1.31c-0.05-0.25-0.07-0.44-0.07-0.58l-7.48,3.65l0.3,0.9c0.23,0.6,0.65,1.33,1.27,2.19
		s1.39,1.72,2.32,2.56c0.93,0.85,2.23,1.57,3.89,2.17c1.66,0.6,3.51,0.9,5.55,0.9c3.81,0,6.95-1.09,9.43-3.29
		c2.48-2.19,3.72-4.98,3.72-8.36C80.95,236.2,79.44,233.5,76.44,231.66z"/>
</g>
</svg>
