<?xml version="1.0" encoding="utf-8"?>
<!-- Generator: Adobe Illustrator 25.0.1, SVG Export Plug-In . SVG Version: 6.00 Build 0)  -->
<svg version="1.1" id="Layer_1" xmlns="http://www.w3.org/2000/svg" xmlns:xlink="http://www.w3.org/1999/xlink" x="0px" y="0px"
	 viewBox="0 0 256.99 313.54" style="enable-background:new 0 0 256.99 313.54;" xml:space="preserve">
<style type="text/css">
	.st0{fill:#002A3A;}
</style>
<g>
	<polygon class="st0" points="145.89,218.83 145.89,141.29 68.35,218.83 	"/>
	<polygon class="st0" points="0,72.94 0,150.49 77.56,72.94 	"/>
	<polygon class="st0" points="218.83,218.83 218.83,0 0,0 0,54.71 121.57,54.71 0,176.29 0,218.83 42.56,218.83 164.13,97.26 
		164.13,218.83 	"/>
	<path class="st0" d="M244.97,14.21c0.43-0.12,0.82-0.29,1.16-0.5c0.34-0.21,0.62-0.47,0.86-0.76c0.23-0.29,0.41-0.61,0.53-0.97
		c0.12-0.35,0.18-0.74,0.18-1.15c0-0.51-0.09-0.96-0.26-1.38c-0.17-0.41-0.44-0.76-0.81-1.05c-0.36-0.29-0.82-0.52-1.38-0.68
		c-0.56-0.16-1.23-0.23-2.01-0.23h-3.48v11.84h1.93v-4.77h1.07c0.21,0,0.38,0.03,0.49,0.09c0.11,0.06,0.21,0.16,0.31,0.3l2.76,3.99
		c0.15,0.26,0.4,0.39,0.74,0.39h1.72l-3.2-4.51C245.41,14.55,245.21,14.35,244.97,14.21z M243.2,13.15h-1.51V8.99h1.56
		c0.87,0,1.52,0.17,1.94,0.51c0.43,0.34,0.65,0.83,0.65,1.48c0,0.32-0.05,0.62-0.17,0.88c-0.11,0.27-0.27,0.49-0.49,0.69
		c-0.22,0.19-0.49,0.34-0.82,0.44C244.02,13.1,243.64,13.15,243.2,13.15z"/>
	<path class="st0" d="M243.86,0.69c-7.25,0-13.13,5.88-13.13,13.14c0,7.25,5.88,13.13,13.13,13.13s13.14-5.88,13.14-13.13
		C256.99,6.57,251.11,0.69,243.86,0.69z M243.86,25.23c-6.3,0-11.41-5.1-11.41-11.41s5.1-11.41,11.41-11.41s11.41,5.11,11.41,11.41
		S250.16,25.23,243.86,25.23z"/>
	<path class="st0" d="M83.03,236.21v34.82h12.71c7.14,0,12.71-1.53,16.38-5.2c2.79-2.79,4.41-6.82,4.41-12.18
		c0-5.36-1.63-9.45-4.41-12.24c-3.67-3.67-9.24-5.2-16.38-5.2H83.03z M106.82,253.64c0,3.57-0.95,5.82-2.57,7.24
		c-1.89,1.68-4.72,2.1-8.77,2.1h-3.1v-18.74h3.1c4.05,0,6.88,0.42,8.77,2.1C105.87,247.76,106.82,250.07,106.82,253.64z"/>
	<polygon class="st0" points="148.73,243.93 148.73,236.21 121.69,236.21 121.69,271.02 149.21,271.02 149.21,263.3 131.04,263.3 
		131.04,257.21 147.16,257.21 147.16,249.65 131.04,249.65 131.04,243.93 	"/>
	<path class="st0" d="M64.65,236.21h-9.29l-13.02,34.81h8.61c0.63,0,0.89-0.1,1.1-0.79l1.68-4.99h13.92l1.89,4.99
		c0.26,0.69,0.52,0.79,1.15,0.79h8.93L65.75,237C65.48,236.26,65.27,236.21,64.65,236.21z M56.3,257.95l0.94-2.94
		c1.68-4.83,2.73-8.03,3.1-9.92h0.05c0.42,1.94,1.42,4.78,3.36,9.92l1.05,2.94H56.3z"/>
	<path class="st0" d="M38.91,271.02v-34.81h-7.08c-1.05,0-1.32,0.1-1.94,0.89L19.8,249.76h-0.16L9.51,237.1
		c-0.63-0.78-0.89-0.89-1.94-0.89H0v34.81h8.93v-21.47h0.05l6.72,8.5c0.42,0.52,0.78,0.68,1.58,0.68h5.2l7.41-9.19h0.05v21.47H38.91
		z"/>
	<path class="st0" d="M146.97,278.73h-9.3l-13.02,34.81h8.61c0.63,0,0.9-0.1,1.11-0.78l1.68-4.99h13.92l1.89,4.99
		c0.26,0.68,0.52,0.78,1.15,0.78h8.93l-13.86-34.02C147.81,278.78,147.6,278.73,146.97,278.73z M138.62,300.47l0.95-2.94
		c1.68-4.83,2.73-8.03,3.1-9.92h0.05c0.42,1.94,1.42,4.78,3.36,9.92l1.05,2.94H138.62z"/>
	<rect x="167.71" y="278.73" class="st0" width="9.34" height="34.81"/>
	<path class="st0" d="M194.92,250.28h0.05c1,1.52,3.57,4.73,5.78,7.45l10.13,12.6c0.47,0.58,0.79,0.68,1.63,0.68h6.67v-34.81h-8.72
		v20.64h-0.05c-0.95-1.37-3.31-4.41-5.73-7.46l-10.03-12.5c-0.47-0.57-0.79-0.68-1.63-0.68h-6.82v34.81h8.71V250.28z"/>
	<rect x="167.69" y="236.21" class="st0" width="9.35" height="34.81"/>
	<path class="st0" d="M210.49,299.36h-0.05c-0.95-1.37-3.31-4.41-5.72-7.45l-10.03-12.5c-0.47-0.58-0.78-0.68-1.63-0.68h-6.83v34.81
		h8.72V292.8H195c1,1.52,3.57,4.73,5.78,7.46l10.13,12.6c0.47,0.57,0.79,0.68,1.63,0.68h6.67v-34.81h-8.71V299.36z"/>
	<path class="st0" d="M25.52,294.64c1.84-1.68,3.2-4.3,3.2-7.09c0-2.31-0.84-4.57-2.37-6.04c-2.05-1.99-4.93-2.78-10.03-2.78H0
		v34.81h16.91c5.14,0,8.87-1.05,11.18-3.31c1.78-1.73,2.83-4.2,2.83-7.41C30.93,298.79,28.72,296,25.52,294.64z M9.35,286.34h6.56
		c1.47,0,2.36,0.16,2.94,0.74c0.47,0.47,0.68,1.2,0.68,2.25c0,0.84-0.21,2.1-0.58,2.68c-0.32,0.52-0.74,0.63-1.37,0.63H9.35V286.34z
		 M20.64,305.14c-0.58,0.58-1.52,0.79-3.1,0.79H9.35v-6.46h8.19c1.68,0,2.57,0.21,3.15,0.79c0.47,0.47,0.73,1.16,0.73,2.25
		C21.42,303.72,21.11,304.67,20.64,305.14z"/>
	<path class="st0" d="M68.81,290.18c0-3.46-1.11-6.25-2.99-8.14c-2.41-2.36-6.25-3.31-12.07-3.31H38.52v34.81h9.35v-10.98h5.14
		c1,0,1.11,0.1,1.68,1.05l5.31,9.04c0.47,0.78,0.73,0.89,1.58,0.89h9.3l-7.83-12.6C66.24,298.89,68.81,295.11,68.81,290.18z
		 M58.57,294.22c-0.53,0.78-1,0.95-1.89,0.95h-8.82v-8.62h6.04c2.31,0,3.62,0.21,4.46,1c0.58,0.57,1,1.84,1,3.1
		C59.36,291.7,59.15,293.33,58.57,294.22z"/>
	<rect x="77.56" y="278.73" class="st0" width="9.35" height="34.81"/>
	<polygon class="st0" points="125.41,278.73 92.75,278.73 92.75,286.45 104.41,286.45 104.41,313.54 113.75,313.54 113.75,286.45 
		125.41,286.45 	"/>
</g>
</svg>
